<?xml version="1.0" standalone="no"?>
<!DOCTYPE svg PUBLIC "-//W3C//DTD SVG 1.1//EN" "http://www.w3.org/Graphics/SVG/1.1/DTD/svg11.dtd" >
<!--
2013-9-30: Created.
-->
<svg>
<metadata>
Created by iconfont
</metadata>
<defs>

<font id="iconfont" horiz-adv-x="1024" >
  <font-face
    font-family="iconfont"
    font-weight="500"
    font-stretch="normal"
    units-per-em="1024"
    ascent="896"
    descent="-128"
  />
    <missing-glyph />
    
    <glyph glyph-name="x" unicode="x" horiz-adv-x="1001"
d="M281 543q-27 -1 -53 -1h-83q-18 0 -36.5 -6t-32.5 -18.5t-23 -32t-9 -45.5v-76h912v41q0 16 -0.5 30t-0.5 18q0 13 -5 29t-17 29.5t-31.5 22.5t-49.5 9h-133v-97h-438v97zM955 310v-52q0 -23 0.5 -52t0.5 -58t-10.5 -47.5t-26 -30t-33 -16t-31.5 -4.5q-14 -1 -29.5 -0.5
t-29.5 0.5h-32l-45 128h-439l-44 -128h-29h-34q-20 0 -45 1q-25 0 -41 9.5t-25.5 23t-13.5 29.5t-4 30v167h911zM163 247q-12 0 -21 -8.5t-9 -21.5t9 -21.5t21 -8.5q13 0 22 8.5t9 21.5t-9 21.5t-22 8.5zM316 123q-8 -26 -14 -48q-5 -19 -10.5 -37t-7.5 -25t-3 -15t1 -14.5
t9.5 -10.5t21.5 -4h37h67h81h80h64h36q23 0 34 12t2 38q-5 13 -9.5 30.5t-9.5 34.5q-5 19 -11 39h-368zM336 498v228q0 11 2.5 23t10 21.5t20.5 15.5t34 6h188q31 0 51.5 -14.5t20.5 -52.5v-227h-327z" />
    

    
    <glyph glyph-name="baobiaozhuangtai" unicode="&#983162;" d="M511.999488-64.208115c-247.531538 0-448.22648 200.665229-448.22648 448.208115 0 247.542886 200.694941 448.208115 448.22648 448.208115 247.575542 0 448.22648-200.665229 448.22648-448.208115C960.225968 136.457114 759.575031-64.208115 511.999488-64.208115L511.999488-64.208115zM696.58693 41.256892c29.108114 0 52.745409 23.569812 52.745409 52.721759l0 93.733824c-24.775258-28.077475-47.536567-54.187133-68.065954-78.063937-0.088008-0.10847-0.132012-0.218988-0.218996-0.26299-21.405373-24.970718-41.058774-48.14758-57.64827-68.127633L696.58693 41.257915 696.58693 41.256892zM538.393683 726.744131 432.902865 726.744131l0-158.185742L327.45605 568.558389l0-52.721759 316.38547 0 0 52.721759L538.393683 568.558389 538.393683 726.744131 538.393683 726.744131zM749.332339 621.279125c0 29.129434-23.637295 52.743248-52.745409 52.743248L591.096112 674.022373l0-52.743248 52.745409 0c29.108114 0 52.745409-23.592324 52.745409-52.721759l0-65.918315 52.745409 39.546691L749.332339 621.279125 749.332339 621.279125zM793.146989 515.836631C609.917531 419.541471 493.703047 130.635525 493.703047 130.635525l-71.567851 142.187373-147.425578-91.698468 0 71.039963L274.709618 568.557366c0 29.129434 23.637295 52.721759 52.745409 52.721759l52.745409 0 0 52.743248L274.710641 674.022373c-29.06411 0-52.701405-23.613814-52.701405-52.743248l0-527.300474c0-29.150924 23.637295-52.721759 52.701405-52.721759l140.815772 0c-23.856292 18.536168-47.97456 36.767392-69.291925 52.721759l-18.778438 0c-29.108114 0-52.745409 23.592324-52.745409 52.743248l0 34.402531c62.594112-22.935362 151.97743-96.29516 227.878138-192.589296 53.664376 100.869339 219.035386 307.202661 299.444966 325.542354C770.780693 387.457752 788.595137 447.052035 793.146989 515.836631L793.146989 515.836631zM793.146989 515.836631"  horiz-adv-x="1024" />

    
    <glyph glyph-name="bianjizhuangtai" unicode="&#983161;" d="M512.020979 833.449385c-247.531538 0-448.22648-200.686718-448.22648-448.208115 0-247.543909 200.695965-448.208115 448.22648-448.208115 247.552005 0 448.182476 200.665229 448.182476 448.208115C960.203454 632.762667 759.574007 833.449385 512.020979 833.449385L512.020979 833.449385zM511.867476 155.075147l-57.056775 32.608675c9.147709 4.376681 17.486973 10.614755 22.892298 20.090571 14.269566 24.993231 5.581341 56.857962-19.412914 71.126944-25.038259 14.268982-56.860292 5.625114-71.195353-19.368116-5.405325-9.476839-6.544311-19.893072-5.712329-29.982872l-54.67135 31.339776 54.715354-31.865755c1.510462-16.34834 9.740227-31.864732 25.146734-40.618093 15.101548-8.644891 32.28254-8.010441 47.03308-1.356904l57.429274-33.418111-169.02641-87.694271-15.298031 194.954157L510.99149 583.49866l185.200427-105.792465L511.867476 155.075147 511.867476 155.075147zM723.025129 525.722792 538.305675 631.186775c-0.524978-0.130983-1.028465 0.130983-1.487948 0.853437l1.487948-0.853437c8.535747 2.013867 27.248691 105.465007 140.705251 42.456974C799.516308 606.719524 723.025129 525.722792 723.025129 525.722792L723.025129 525.722792zM723.025129 525.722792"  horiz-adv-x="1024" />

    
    <glyph glyph-name="buquedingxing" unicode="&#983164;" d="M793.930874 385.929955c91.396245 87.387279 135.7809 172.980703 106.256283 224.082568-29.546107 51.145867-125.866703 55.544037-247.224534 20.090571C623.001036 752.922351 571.065096 834.13807 511.994372 834.13807c-59.070724 0-110.984151-81.21572-140.968251-204.036-121.357831 35.453467-217.678427 31.055297-247.224534-20.090571-29.502103-51.101865 14.882552-136.695289 106.278796-224.082568-91.396245-87.364767-135.7809-172.936701-106.278796-224.104057 29.546107-51.101865 125.866703-55.478546 247.224534-20.024056C400.987707 18.95905 452.923648-62.278159 511.994372-62.278159c59.070724 0 111.006665 81.238232 140.989742 204.080002 121.357831-35.431977 217.655913-31.076786 247.203044 20.024056C929.711774 212.994278 885.326095 298.565189 793.930874 385.929955L793.930874 385.929955zM851.599611 581.999516c18.822442-32.587186-20.660375-93.800339-96.648067-161.140027-23.98728 20.244067-50.315981 40.334637-78.63714 59.899228-2.779414 34.316573-7.025285 67.187215-12.562622 98.111528C760.049864 610.996944 832.822196 614.585679 851.599611 581.999516L851.599611 581.999516zM568.022682 288.847873c-18.822442-10.854209-37.555853-21.053502-56.02831-30.594809-18.472457 9.541307-37.184378 19.7406-56.02831 30.594809-18.822442 10.876722-37.031899 21.973454-54.540362 33.221636-0.962971 20.770046-1.487948 42.107003-1.487948 63.86147 0 21.731954 0.503487 43.069935 1.487948 63.838957 17.508463 11.226692 35.71792 22.343891 54.540362 33.199123 18.843932 10.876722 37.555853 21.097504 56.02831 30.638811 18.472457-9.54233 37.205868-19.762089 56.02831-30.638811 18.822442-10.855232 37.052366-21.972431 54.540362-33.199123 0.984461-20.769023 1.487948-42.107003 1.487948-63.838957 0-21.753443-0.503487-43.091424-1.487948-63.86147C605.075047 310.820304 586.845124 299.723571 568.022682 288.847873L568.022682 288.847873zM617.441186 253.043413c-1.443944-14.093996-3.107908-27.79402-4.989845-41.079604-12.453123 5.01113-25.169247 10.41828-38.081854 16.195867 7.222791 3.982708 14.444559 8.052396 21.66735 12.233626C603.259628 244.550994 610.415901 248.775202 617.441186 253.043413L617.441186 253.043413zM449.640747 228.160699c-12.934097-5.777587-25.650221-11.184737-38.081854-16.195867-1.881937 13.284561-3.567392 26.984584-5.011336 41.079604 7.047799-4.26821 14.182582-8.492418 21.405373-12.649088C435.196188 236.213096 442.417956 232.142383 449.640747 228.160699L449.640747 228.160699zM344.171419 361.024729c-11.468662 8.316409-22.520822 16.61133-33.090985 24.905226 10.571186 8.272407 21.623346 16.567327 33.090985 24.883737-0.153502-8.250918-0.261977-16.544815-0.261977-24.883737C343.909442 377.569544 344.017917 369.274624 344.171419 361.024729L344.171419 361.024729zM406.546534 518.77352c1.444968 14.115486 3.107908 27.838022 4.989845 41.144072 12.474614-5.01113 25.190738-10.417257 38.124834-16.217357-7.222791-3.983731-14.467072-8.075933-21.710331-12.256138C420.729116 527.263891 413.594332 523.040706 406.546534 518.77352L406.546534 518.77352zM574.325483 543.700235c12.93512 5.799076 25.672734 11.205203 38.125858 16.217357 1.881937-13.30605 3.566368-27.028587 5.011336-41.144072-7.047799 4.267187-14.182582 8.491395-21.426863 12.671601C588.792555 535.624303 581.548274 539.716504 574.325483 543.700235L574.325483 543.700235zM679.816301 410.813692c11.490153-8.316409 22.542313-16.61133 33.113499-24.883737-10.571186-8.293897-21.624369-16.588817-33.113499-24.905226 0.174993 8.250918 0.263 16.544815 0.263 24.905226C680.079301 394.268878 679.991294 402.562774 679.816301 410.813692L679.816301 410.813692zM511.994372 778.112056c37.599857 0 70.888348-64.824401 91.198738-164.29181-29.524617-10.657734-60.099189-23.417339-91.198738-38.167275-31.100573 14.750959-61.675145 27.509541-91.199762 38.167275C441.12649 713.287655 474.393491 778.112056 511.994372 778.112056L511.994372 778.112056zM172.388109 581.999516c18.799928 32.587186 91.548723 28.997428 187.847829-3.12927-5.514823-30.924313-9.783208-63.794955-12.540108-98.111528-28.34265-19.565615-54.67135-39.655162-78.65863-59.899228C193.070998 488.199177 153.565667 549.41233 172.388109 581.999516L172.388109 581.999516zM172.388109 189.838905c-18.822442 32.588209 20.681866 93.800339 96.670581 161.14105 23.986257-20.244067 50.315981-40.334637 78.636117-59.899228 2.757923-34.316573 7.003795-67.165726 12.540108-98.067526C263.937856 160.88548 191.188037 157.251719 172.388109 189.838905L172.388109 189.838905zM511.994372-6.252145c-37.60088 0-70.866858 64.84589-91.199762 164.314323 29.524617 10.657734 60.099189 23.417339 91.199762 38.167275 31.100573-14.749936 61.675145-27.509541 91.198738-38.167275C582.88272 58.593745 549.594228-6.252145 511.994372-6.252145L511.994372-6.252145zM851.599611 189.838905c-18.778438-32.587186-91.549747-28.953426-187.848852 3.174296 5.537337 30.901801 9.784231 63.750953 12.562622 98.067526 28.321159 19.564591 54.648837 39.655162 78.63714 59.899228C830.939236 283.639245 870.422053 222.426091 851.599611 189.838905L851.599611 189.838905zM851.599611 189.838905"  horiz-adv-x="1024" />

    
    <glyph glyph-name="fenxizhuti" unicode="&#983136;" d="M947.391136 283.907351c-3.563298-3.635807-6.739771-6.959505-9.564212-10.154267-2.838768-3.195785-5.338807-5.864568-7.458161-8.012488-2.847978-2.88777-5.320387-4.986571-7.421321-6.389524L832.558172 348.906737c4.244848 3.587712 9.01672 7.835456 14.334037 12.781094 5.319364 5.031597 9.741251 8.928347 13.309666 11.772115 8.490719 7.834432 17.704946 11.162224 27.641656 10.157337 9.892706-1.096984 18.053908-3.414773 24.447787-6.961552 7.088732-3.587712 14.706536-9.803273 22.870807-18.647709 8.139711-8.928347 14.357574-18.294668 18.581955-28.317952 2.141868-5.646604 3.564322-12.779048 4.286805-21.315468C958.729833 299.882184 955.164488 291.653779 947.391136 283.907351L947.391136 283.907351zM783.619618 120.685919l-38.255823-38.384216-35.106981-35.1915c-9.935687-9.937326-18.250391-18.516726-24.993231-25.607214-6.740794-7.04444-10.459641-10.984169-11.185195-11.685133-3.523388-2.845815-7.418251-5.865591-11.687659-9.104355-4.223358-3.149736-8.511186-5.864568-12.759104-7.965415-4.242801-2.146896-10.791206-4.771677-19.651354-8.05342-8.864241-3.194762-17.904499-6.173606-27.117702-9.016351-9.21525-2.848884-18.081538-5.340635-26.590678-7.441483-8.491743-2.190899-14.884599-3.588735-19.1274-4.2897-8.538817-1.446955-14.208165-0.352017-17.028513 3.192715-2.843884 3.548826-3.547948 9.589402-2.123447 18.121729 0.722484 4.2897 2.123447 10.68127 4.244848 19.172665 2.146984 8.577353 4.61837 17.289782 7.464301 26.130124 2.822394 8.930393 5.470819 17.289782 7.987232 25.124214 2.452965 7.791453 4.422911 13.132088 5.801361 15.932878 4.289875 9.279341 9.956154 17.420765 17.027489 24.553209l13.854087 13.877055 26.570211 26.657126c10.635657 10.68127 22.322293 22.583344 35.081397 35.715433 12.760128 13.130042 25.520256 26.131147 38.256846 38.912242 30.509078 30.592762 64.892551 64.735373 103.172935 102.378715l89.294288-89.555665L783.619618 120.685919 783.619618 120.685919zM694.870775 674.863531c0 14.57495-11.817624 26.394137-26.370658 26.394137l-52.766899 0 0 52.743248 105.534822 0c14.55508 0 26.370658-11.775184 26.370658-26.394137l0-358.785479-52.766899-58.041928L694.871799 674.863531 694.870775 674.863531zM615.733218 556.113963c0-7.265474-5.910859-13.174044-13.198121-13.174044L206.768512 542.939919c-7.288285 0-13.175607 5.90857-13.175607 13.174044l0 26.394137c0 7.310499 5.887322 13.174044 13.175607 13.174044l395.766585 0c7.287262 0 13.198121-5.863545 13.198121-13.174044L615.733218 556.113963 615.733218 556.113963zM562.963248 648.47144l-26.394195 0c-14.55508 0-26.371681 11.81714-26.371681 26.39209L510.197372 780.394029c0 14.575973 11.816601 26.394137 26.371681 26.394137l26.394195 0c14.554057 0 26.374751-11.818163 26.374751-26.394137l0-105.530498C589.338 660.28858 577.516282 648.47144 562.963248 648.47144L562.963248 648.47144zM325.499409 754.000915l158.304792 0 0-52.743248L325.499409 701.257667 325.499409 754.000915 325.499409 754.000915zM272.733533 648.47144l-26.372705 0c-14.575547 0-26.395218 11.81714-26.395218 26.39209L219.96561 780.394029c0 14.575973 11.819671 26.394137 26.395218 26.394137l26.372705 0c14.553034 0 26.394195-11.818163 26.394195-26.394137l0-105.530498C299.127728 660.28858 287.286566 648.47144 272.733533 648.47144L272.733533 648.47144zM114.431811 674.863531l0-580.437695c0-14.576997 11.818648-26.39516 26.394195-26.39516l333.368956 0-47.973537-52.743248L88.035569 15.287427c-14.554057 0-26.372705 11.774161-26.372705 26.350135L61.662865 727.606779c0 14.618952 11.818648 26.394137 26.372705 26.394137l105.556313 0 0-52.743248L140.826006 701.257667C126.250458 701.257667 114.431811 689.438481 114.431811 674.863531L114.431811 674.863531zM206.768512 120.818949c-7.288285 0-13.175607 5.907547-13.175607 13.173021l0 26.39516c0 7.311523 5.887322 13.175067 13.175607 13.175067l363.374546 0-47.97456-52.743248L206.768512 120.818949 206.768512 120.818949zM615.733218 239.524514c0-7.266497-5.910859-13.175067-13.198121-13.175067L206.768512 226.349447c-7.288285 0-13.175607 5.90857-13.175607 13.175067l0 26.391067c0 7.312546 5.887322 13.178137 13.175607 13.178137l395.766585 0c7.287262 0 13.198121-5.865591 13.198121-13.178137L615.733218 239.524514 615.733218 239.524514zM602.535097 437.408397 206.768512 437.408397c-7.288285 0-13.175607 5.910617-13.175607 13.177114l0 26.39209c0 7.310499 5.887322 13.175067 13.175607 13.175067l395.766585 0c7.287262 0 13.198121-5.865591 13.198121-13.175067l0-26.39209C615.733218 443.319014 609.822359 437.408397 602.535097 437.408397L602.535097 437.408397zM615.733218 345.052966c0-7.267521-5.910859-13.171997-13.198121-13.171997L206.768512 331.880969c-7.288285 0-13.175607 5.9055-13.175607 13.171997l0 26.39516c0 7.310499 5.887322 13.174044 13.175607 13.174044l395.766585 0c7.287262 0 13.198121-5.863545 13.198121-13.174044L615.733218 345.052966 615.733218 345.052966z"  horiz-adv-x="1024" />

    
    <glyph glyph-name="huodongshuiping" unicode="&#983165;" d="M792.641455-63.52557l-560.2831 0c-61.893118 0-112.05662 50.248428-112.05662 112.073518L120.301736 272.630517l0 56.026014L120.301736 608.808092l0 56.004525 0 56.026014c0 61.956074 50.184992 112.052029 112.05662 112.052029l560.2831 0c61.892095 0 112.05662-50.095955 112.05662-112.052029l0-56.026014 0-56.004525 0-280.151561 0-56.026014 0-224.082568C904.698075-13.277142 854.534573-63.52557 792.641455-63.52557L792.641455-63.52557zM848.669765 776.864646l-56.02831 0 0-56.026014-560.2831 0 0 56.026014-56.02831 0 0-112.052029 672.33972 0L848.669765 776.864646 848.669765 776.864646zM848.669765 608.786603l-672.33972 0 0-280.130072 672.33972 0L848.669765 608.786603 848.669765 608.786603zM848.669765 272.630517l-672.33972 0 0-280.130072 672.33972 0L848.669765 272.630517 848.669765 272.630517zM792.641455 48.547948l-560.2831 0L232.358356 216.604502l560.2831 0L792.641455 48.547948 792.641455 48.547948zM792.641455 384.682545l-560.2831 0L232.358356 552.782078l560.2831 0L792.641455 384.682545 792.641455 384.682545zM792.641455 384.682545"  horiz-adv-x="1024" />

    
    <glyph glyph-name="moban" unicode="&#983144;" d="M791.332593-64.208115l-560.2831 0c-61.871628 0-112.03513 50.205449-112.03513 112.053052L119.014364 660.410354c0 61.890582 50.163502 112.052029 112.03513 112.052029l56.02831 0 0 31.732725c0 15.4509 12.540108 28.013007 28.014155 28.013007l56.02831 0c15.495537 0 28.014155-12.562107 28.014155-28.013007l0-31.732725 224.11324 0 0 31.732725c0 15.4509 12.517594 28.013007 28.014155 28.013007l56.02831 0c15.473024 0 28.014155-12.562107 28.014155-28.013007l0-31.732725 56.02831 0c61.872651 0 112.03513-50.161447 112.03513-112.052029l0-612.565417C903.366699-14.003689 853.205244-64.208115 791.332593-64.208115L791.332593-64.208115zM847.339413 664.129049c0 30.946826-25.103753 56.026014-56.00682 56.026014l-56.02831 0 0-28.013007c0-15.495926-12.541131-28.01403-28.014155-28.01403l-56.02831 0c-15.496561 0-28.014155 12.518105-28.014155 28.01403l0 28.013007-224.11324 0 0-28.013007c0-15.495926-12.518618-28.01403-28.014155-28.01403l-56.02831 0c-15.474047 0-28.014155 12.518105-28.014155 28.01403l0 28.013007-56.02831 0c-30.968561 0-56.005796-25.080212-56.005796-56.026014l0-560.260144c0-30.944779 25.037235-56.024991 56.005796-56.024991l560.2831 0c30.903067 0 56.027287 25.080212 56.027287 56.024991l0 560.260144L847.339413 664.129049zM287.077803 271.946948l447.680012 0 0-112.049982L287.077803 159.896966 287.077803 271.946948 287.077803 271.946948zM287.077803 439.982012l447.680012 0 0-112.052029L287.077803 327.929983 287.077803 439.982012 287.077803 439.982012zM287.077803 608.104057l447.680012 0 0-112.095008L287.077803 496.00905 287.077803 608.104057 287.077803 608.104057zM287.077803 608.104057"  horiz-adv-x="1024" />

    
    <glyph glyph-name="paifangyinzi" unicode="&#983145;" d="M511.839846 161.137213c0 30.968315 25.081239 56.026014 56.02831 56.026014 30.903067 0 56.02831-25.057699 56.02831-56.026014 0-30.924313-25.125243-56.026014-56.02831-56.026014C536.920062 105.111199 511.839846 130.2129 511.839846 161.137213L511.839846 161.137213zM119.641676-62.966844l-56.02831 0 0 56.026014L63.613366 833.449385l56.02831 0 0-805.110711 0-35.279504 35.279927 0 805.122209 0 0-56.026014L119.641676-62.966844 119.641676-62.966844zM868.757066 777.423371l35.258436-35.300994L154.921603-6.94083l-35.279927 35.279504L868.757066 777.423371 868.757066 777.423371zM904.015502 161.137213c0-30.924313-25.10273-56.026014-56.00682-56.026014s-56.02831 25.101701-56.02831 56.026014c0 30.968315 25.125243 56.026014 56.02831 56.026014S904.015502 192.104505 904.015502 161.137213L904.015502 161.137213zM707.938931 217.163227c-15.495537 0-28.014155 12.518105-28.014155 28.013007 0 15.47239 12.518618 28.013007 28.014155 28.013007s28.014155-12.540617 28.014155-28.013007C735.953086 229.681332 723.433445 217.163227 707.938931 217.163227L707.938931 217.163227zM791.981396 497.293299c30.903067 0 56.02831-25.058722 56.02831-56.026014s-25.125243-56.026014-56.02831-56.026014-56.02831 25.058722-56.02831 56.026014S761.077306 497.293299 791.981396 497.293299L791.981396 497.293299zM932.029657 609.345328c-15.451533 0-28.014155 12.518105-28.014155 28.013007 0 15.494902 12.562622 28.013007 28.014155 28.013007 15.495537 0 28.014155-12.518105 28.014155-28.013007C960.043812 621.863433 947.525194 609.345328 932.029657 609.345328L932.029657 609.345328zM651.910621 721.397357c-15.495537 0-28.014155 12.540617-28.014155 28.013007 0 15.494902 12.518618 28.013007 28.014155 28.013007s28.014155-12.518105 28.014155-28.013007C679.924776 733.937974 667.405135 721.397357 651.910621 721.397357L651.910621 721.397357zM399.783226 497.293299c-30.903067 0-56.02831 25.124214-56.02831 56.026014 0 30.967292 25.125243 56.026014 56.02831 56.026014s56.02831-25.058722 56.02831-56.026014C455.811536 522.417513 430.686293 497.293299 399.783226 497.293299L399.783226 497.293299zM259.712451 273.189242c-15.495537 0-28.014155 12.518105-28.014155 28.013007 0 15.47239 12.518618 28.013007 28.014155 28.013007 15.495537 0 28.014155-12.540617 28.014155-28.013007C287.726606 285.707346 275.206965 273.189242 259.712451 273.189242L259.712451 273.189242zM259.712451 609.345328c-15.495537 0-28.014155 12.518105-28.014155 28.013007 0 15.494902 12.518618 28.013007 28.014155 28.013007 15.495537 0 28.014155-12.518105 28.014155-28.013007C287.726606 621.863433 275.206965 609.345328 259.712451 609.345328L259.712451 609.345328zM259.712451 609.345328"  horiz-adv-x="1024" />

    
    <glyph glyph-name="logo" unicode="&#983232;" d="M650.387879 273.430742C515.941425 147.721669 473.219711 245.440248 473.219711 245.440248s-24.446763 53.683666 39.569802 50.02944c1.35696-0.086981 2.736433-0.174985 4.180377-0.305969 97.721559 13.808494 138.386344 49.262984 163.642576 87.037309 6.652786 9.91379 12.212637 19.959587 17.464459 29.850865 15.801518 29.501918 23.068313 74.869175 18.296441 132.646066-1.049955 12.277628-5.29685 33.375132-15.539541 56.900941-24.731254 40.553625-64.716536 71.783907-113.129089 85.330434-18.64745 7.178493-38.519847 12.102642-59.355215 14.356986-93.847163 10.17678-180.407065-36.307927-223.894243-111.461581-2.932916-5.01113-5.646835-10.17678-8.120267-15.4509-0.743974-0.743944-1.510462-1.466398-2.342444-2.122337-6.193303-5.077645-14.466049-7.768941-23.176788-6.80601-4.070879 0.437975-7.857267 1.619894-11.249666 3.369747-8.908245 4.705162-15.101548 13.481036-16.195507 23.461341 1.159453 6.325056 2.560417 12.539594 4.157863 18.668175C279.244074 730.831216 396.203554 813.097872 526.140113 801.191704c118.929426-7.41897 215.271512-97.56406 232.562002-213.577307C766.492864 550.497035 790.962141 404.894889 650.387879 273.430742zM501.738377 485.45467c172.133295-65.10888 103.368394-146.58759 103.368394-146.58759s-37.404397-45.652759-62.375115 13.394055c-0.526001 1.2689-1.050979 2.537799-1.575956 3.895727-55.547336 81.58718-105.294336 102.400205-150.379984 108.397802-11.796134 1.575892-23.286287 2.14485-34.470458 2.494821-33.463484 1.137916-77.367165-12.364609-127.092674-42.195008-10.571186-6.346545-27.620166-19.456121-44.209662-39.043225-25.486485-40.093137-35.838675-89.772606-26.602958-139.212622 1.772439-19.871583 6.150322-39.895639 13.306596-59.570747 32.336777-88.678692 112.286873-145.821133 198.911246-151.665235 5.799314-0.393973 11.621141-0.568958 17.442969-0.459464 1.006975-0.327458 1.991435-0.699941 2.954406-1.159406 7.288285-3.304256 13.3506-9.54233 16.327519-17.770735 1.422454-3.852748 2.035439-7.769964 1.947431-11.599176-0.284491-10.067286-5.405325-19.500123-13.898091-24.882714-6.193303-1.750877-12.387629-3.2623-18.603446-4.5312-121.555337-24.489764-247.039308 44.12087-293.722403 165.955706-45.851113 109.973694-7.528772 236.250702 88.923836 302.978453C201.854395 467.288938 321.702787 553.539324 501.738377 485.45467zM391.716173 235.503944c-40.774283 179.480744 65.154529 167.137625 65.154529 167.137625s58.699249-5.974062 23.264796-59.418274c-0.766488-1.116427-1.554466-2.276856-2.385424-3.435239-37.35937-91.37101-27.226177-144.354735-7.332289-185.236841 5.208842-10.723226 11.07365-20.594037 16.939482-30.114878 17.529953-28.537963 53.0299-57.667398 105.35983-82.659605 11.117654-5.296633 31.493539-12.300141 56.96979-15.297404 47.471073 0.89744 94.613651 19.696598 130.72556 54.6906 15.626526 12.474103 29.896092 27.15957 42.326702 44.011376 56.116318 75.919087 59.574211 174.09713 16.6335 249.556753-2.887888 5.055133-5.951793 10.001795-9.234694 14.794961-0.307004 1.028423-0.526001 2.035356-0.700993 3.086291-1.225971 7.900947 0.612986 16.413831 5.820804 23.460318 2.407938 3.282766 5.384858 5.975085 8.579751 8.010441 8.535747 5.339612 19.259412 6.259564 28.452148 2.166339 4.858857-4.201695 9.541698-8.535397 14.007589-13.021571 87.544362-87.803765 99.670014-230.29813 23.856292-336.50708-66.403013-98.963942-192.816184-136.716778-301.721915-93.142353C572.451732-4.467499 434.349879 47.816285 391.716173 235.503944z"  horiz-adv-x="1024" />

    
    <glyph glyph-name="guanjianzhibiao" unicode="&#983230;" d="M583.741309 473.61911l80.651089 0 0-1.598404c8.841728 0.874927 17.771464 1.598404 26.920196 1.598404 148.496 0 268.913374-120.368438 268.913374-268.902356 0-148.513452-120.437841-268.925892-268.913374-268.925892-148.562518 0-268.935888 120.41244-268.935888 268.925892L422.376706 312.259072l-26.920196 0 0 26.919093-26.920196 0 0 26.875091-26.876192 0 0 26.919093-26.854702 0 0 26.919093-26.920196 0 0 26.853601-26.920196 0 0 26.875091-26.853678 0 0 26.919093-26.876192 0 0 26.919093-26.920196 0 0 26.875091-26.920196 0 0 26.853601-26.876192 0 0 26.919093-26.854702 0L99.663874 661.874705 99.663874 769.462049c0 14.81645 12.037644 26.853601 26.854702 26.853601l107.591752 0c14.817058 0 26.853678-12.037151 26.853678-26.853601L260.964006 661.874705l26.920196 0 26.920196 0 80.650066 0c14.882552 0 26.920196-12.014638 26.920196-26.852578l0-107.565854 107.570262 0 26.853678 0M745.085445 43.356716c59.420709 0 107.570262 48.14758 107.570262 107.564831 0 59.418274-48.149553 107.565854-107.570262 107.565854-59.419686 0-107.569238-48.14758-107.569238-107.565854C637.516206 91.504296 685.665759 43.356716 745.085445 43.356716L745.085445 43.356716zM71.651766 186.814012l307.017742 0c4.311366 0 7.813263-3.544733 7.813263-7.878434l0-56.026014c0-4.332678-3.501897-7.834432-7.813263-7.834432L71.651766 115.075131c-4.37686 0-7.878757 3.501754-7.878757 7.834432l0 56.026014C63.773009 183.269279 67.274906 186.814012 71.651766 186.814012L71.651766 186.814012zM71.651766 43.356716l378.738072 0c4.333879 0 7.835777-3.501754 7.835777-7.834432l0-56.004525c0-4.333702-3.501897-7.878434-7.835777-7.878434L71.651766-28.360675c-4.37686 0-7.878757 3.544733-7.878757 7.878434l0 56.004525C63.773009 39.854962 67.274906 43.356716 71.651766 43.356716L71.651766 43.356716zM71.651766 330.205816l235.274898 0c4.37686 0 7.878757-3.479241 7.878757-7.812943l0-56.026014c0-4.376681-3.501897-7.878434-7.878757-7.878434L71.651766 258.488425c-4.37686 0-7.878757 3.501754-7.878757 7.878434l0 56.026014C63.773009 326.725552 67.274906 330.205816 71.651766 330.205816L71.651766 330.205816zM71.651766 473.61911l127.705659 0c4.333879 0 7.878757-3.501754 7.878757-7.834432l0-56.004525c0-4.332678-3.544878-7.834432-7.878757-7.834432L71.651766 401.945721c-4.37686 0-7.878757 3.501754-7.878757 7.834432l0 56.004525C63.773009 470.117356 67.274906 473.61911 71.651766 473.61911L71.651766 473.61911zM501.931789 832.207092l414.56549 0c4.332856 0 7.878757-3.501754 7.878757-7.878434l0-56.026014c0-4.267187-3.545901-7.768941-7.878757-7.768941L501.931789 760.533702c-4.37686 0-7.878757 3.501754-7.878757 7.768941l0 56.026014C494.053032 828.706361 497.55493 832.207092 501.931789 832.207092L501.931789 832.207092zM573.609139 688.749796l342.88814 0c4.332856 0 7.878757-3.501754 7.878757-7.812943l0-56.026014c0-4.332678-3.545901-7.834432-7.878757-7.834432L573.609139 617.076406c-4.332856 0-7.834753 3.501754-7.834753 7.834432l0 56.026014C565.774386 685.249065 569.276283 688.749796 573.609139 688.749796L573.609139 688.749796zM681.178377 545.357991l235.318902 0c4.332856 0 7.878757-3.501754 7.878757-7.834432l0-56.026014c0-4.376681-3.545901-7.878434-7.878757-7.878434l-235.318902 0c-4.311366 0-7.813263 3.501754-7.813263 7.878434l0 56.026014C673.365114 541.857261 676.867012 545.357991 681.178377 545.357991L681.178377 545.357991zM681.178377 545.357991"  horiz-adv-x="1024" />

    
    <glyph glyph-name="liuzhuan" unicode="&#983171;" d="M87.543339 381.00069c1.860447-1.400906 4.114883-2.14485 6.413323-2.14485 0.67848 0 1.35696 0.065492 2.035439 0.197498l39.285311 7.571443 16.742999 3.217275 153.79285 29.588899c4.136373 0.809435 7.440764 3.982708 8.404758 8.097422 0.940457 4.136204-0.612986 8.425903-4.005385 10.963703l-64.673555 72.745814c64.848547 71.849398 142.763204 119.930463 273.925733 144.266731 171.696325 31.843242 340.415731-20.922519 419.358852-99.818403-14.598061 32.958646-51.695454 67.143213-82.422505 88.941682-79.906092 56.726979-177.189658 87.890746-290.537743 87.890746-113.369576 0-222.164785-21.447475-301.261408-79.311347-26.482203-19.390629-42.043234-32.827663-92.993691-89.116667l-90.695251 46.790676c-1.904451 1.422396-4.157863 2.14485-6.434813 2.14485-1.794953 0-3.588882-0.437975-5.208842-1.356904-3.69838-2.056845-5.843318-6.106068-5.449329-10.307763l19.500922-212.767871C83.582982 385.574868 85.114934 382.817058 87.543339 381.00069L87.543339 381.00069zM960.184011 166.63646l-19.500922 212.766848c-0.261977 3.0208-1.793929 5.777587-4.223358 7.593955-1.860447 1.400906-4.114883 2.14485-6.434813 2.14485-0.656989 0-1.335469-0.065492-2.013949-0.196475l-39.306802-7.572466-16.742999-3.217275-153.77136-29.588899c-4.157863-0.809435-7.440764-3.983731-8.403735-8.097422-0.962971-4.136204 0.612986-8.42488 3.982871-10.964726l64.673555-72.745814c-64.827057-71.849398-142.74069-119.930463-273.90322-144.266731-171.717816-31.842219-340.437221 20.944008-419.381366 99.818403 14.598061-32.958646 51.695454-67.143213 82.422505-88.941682 79.927582-56.725956 177.211148-87.890746 290.559234-87.890746 113.348085 0 222.164785 21.447475 301.239918 79.31237 26.503693 19.389606 42.043234 32.82664 92.993691 89.115644l90.716741-46.790676c1.904451-1.422396 4.157863-2.14485 6.434813-2.14485 1.794953 0 3.589905 0.437975 5.208842 1.356904C958.433062 158.384519 960.55651 162.433742 960.184011 166.63646L960.184011 166.63646zM960.184011 166.63646"  horiz-adv-x="1024" />

    
    <glyph glyph-name="wenshiqitipaifangbaogaoxitong" unicode="&#58880;" d="M831.928813 377.027192c0 189.166337-70.490266 391.025765-355.621661 391.025765l-14.225562 0c-249.589491 0-398.308581-111.079888-398.308581-363.108948l0-27.916816c0-189.183733 111.801806-377.080148 355.630871-377.080148l28.452148 0c244.755195 0 384.074832 170.424484 384.074832 363.099738L831.928813 377.027192 831.928813 377.027192zM453.555053 153.127795c-157.123848 0-230.503026 112.949468-230.503026 223.743854 0 119.002324 84.444641 248.982678 252.660559 248.982678 60.228131 0 152.981335-20.292162 152.981335-79.521125 0-31.812543-27.681567-49.906643-71.295641-49.906643-28.37335 0 9.700317 51.55212-78.226778 51.55212-101.053581 0-143.974848-81.719186-143.974848-150.274562 0-104.738459 89.995281-146.983609 150.217272-146.983609 112.817991 0 122.518308 80.071663 128.759708 80.071663 9.700317 0 15.21514-43.874253 15.21514-49.346895C629.386729 200.275605 550.490681 153.127795 453.555053 153.127795zM940.884688 150.957363l-1.794953 1.683339c-24.057891 23.162536-58.80363 39.336914-95.563318 4.934382l-1.820536-1.717108c-32.181229-30.113855-37.215078-61.610196-5.174048-92.441389l3.560228-3.413749c24.056868-23.146163 62.365905-32.617885 93.793949-3.206018l3.643119 3.415796C969.092256 89.748303 965.370339 127.406994 940.884688 150.957363z"  horiz-adv-x="1024" />

    
    <glyph glyph-name="linianpingtai" unicode="&#58881;" d="M276.390979 734.749456c-63.357529 0-114.718348-51.357691-114.718348-114.714671 0-63.354933 51.360819-114.710578 114.718348-114.710578s114.713232 51.356668 114.713232 114.710578C391.106257 683.390741 339.750555 734.749456 276.390979 734.749456zM259.599883 303.195649c44.805251 44.795229 44.805251 117.430526 0 162.228825-44.800134 44.791136-117.431244 44.791136-162.231379 0-44.795018-44.798299-44.795018-117.433596 0-162.228825C142.168639 258.405537 214.804865 258.405537 259.599883 303.195649zM275.955033 263.118885c-63.362646 0-114.718348-51.362808-114.718348-114.710578 0-63.365166 51.355702-114.716718 114.718348-114.716718 63.347296 0 114.708115 51.362808 114.708115 114.716718C390.663148 211.756077 339.306422 263.118885 275.955033 263.118885zM430.572701 131.615852c-44.805251-44.799322-44.805251-117.428479 0-162.225755 44.800134-44.797275 117.431244-44.797275 162.231379 0 44.798088 44.788066 44.790924 117.426433 0 162.225755C548.002922 176.413128 475.371812 176.413128 430.572701 131.615852zM747.603904 262.670677c-63.368786 0-114.704022-51.353598-114.704022-114.708532s51.335235-114.708532 114.704022-114.708532c63.356506-0.01228 114.713232 51.353598 114.713232 114.708532C862.327369 211.307869 810.96041 262.670677 747.603904 262.670677zM926.620239 464.799234c-44.790924 44.798299-117.432268 44.791136-162.230355 0-44.799111-44.798299-44.799111-117.417223 0.011257-162.215522 44.790924-44.809555 117.421011-44.809555 162.222168-0.01228C971.43163 347.371778 971.421397 419.999912 926.620239 464.799234zM748.052131 504.894418c63.357529 0 114.713232 51.343365 114.713232 114.694205 0 63.367213-51.365936 114.718765-114.722442 114.718765-63.345249 0.005117-114.704022-51.358715-114.714255-114.714671C633.327642 556.236759 684.684368 504.894418 748.052131 504.894418zM431.19285 798.603763c-44.795018-44.782949-44.795018-117.4162 0-162.229848 44.798088-44.791136 117.431244-44.782949 162.230355 0.01535 44.800134 44.798299 44.800134 117.4162 0 162.215522C548.634328 843.417411 475.991961 843.403085 431.19285 798.603763z"  horiz-adv-x="1024" />

    
    <glyph glyph-name="wenshiqitiqingdandengjibu" unicode="&#58883;" d="M566.207262 349.264894c-24.504071 0-43.84228-8.502651-57.989045-25.492604-14.176442-17.018605-21.264151-40.330544-21.264151-69.946049 0-28.720112 7.151157-51.366901 21.482124-67.911716 14.296173-16.544815 33.563772-24.819269 57.771072-24.819269 24.941041 0 43.939499 8.098445 57.008677 24.249287 13.060992 16.177448 19.574603 39.367613 19.574603 69.595055 0 30.376844-6.513611 53.712319-19.574603 69.944002C610.14369 341.131657 591.148303 349.264894 566.207262 349.264894zM765.823594 491.691721c0 0 96.40144 25.263383 158.341632-36.050054 21.886346 17.429974 36.060741 45.345768 36.060741 76.825736 0 52.847625-26.159848 100.266611-97.341897 82.927711-13.671931 49.749054-57.268608 99.191116-114.567916 99.191116-48.875107 0-87.61395-24.755824-106.602174-66.828035C662.855329 637.919107 736.02472 597.082026 765.823594 491.691721zM732.409231 451.090001C703.009463 560.892803 609.462141 670.001803 486.410668 670.001803c-142.924893 0-245.59741-101.301174-255.47272-262.699074-89.504074 0-167.165963-67.310012-167.165963-168.620395 0-101.32164 68.345328-185.267541 152.616-185.267541 4.920258 0 536.914945 0 536.914945 0 104.20447 0 188.026915 97.584526 188.026915 212.912158C941.332915 382.921435 885.198177 489.389282 732.409231 451.090001zM410.886553 329.873242c-17.396918 12.921287-36.361606 19.390629-57.573566 19.390629-24.949227 0-45.095882-8.771781-60.749015-26.282596-15.653133-17.507746-23.419322-40.869826-23.419322-70.067822 0-28.720112 7.428484-51.221592 22.205631-67.450205 14.767937-16.247033 34.516509-24.369014 59.605935-24.369014 21.219123 0 42.533418 7.055696 59.930336 21.212114l0-40.626279c-17.396918-11.416004-41.360661-17.140379-67.938035-17.140379-35.613538 0-64.162904 11.606339-85.848674 34.752502-21.66735 23.164582-32.461626 53.172013-32.461626 90.019223 0 40.923038 11.718359 73.892941 35.109028 98.93836 23.391691 25.047466 54.353089 37.564547 93.547322 37.564547 22.542313 0 40.196091-4.077875 57.593009-12.17632L410.886553 329.873242 410.886553 329.873242zM653.705574 160.86706c-22.419511-24.233937-52.481385-36.331463-90.168227-36.331463-36.819042 0-66.218811 11.755742-88.175768 35.218106-21.980494 23.462365-32.94874 54.363142-32.94874 92.716658 0 41.22082 11.344837 73.742515 34.070329 97.578386 22.691721 23.828708 53.489383 35.760458 92.395032 35.760458 36.979708 0 65.938413-11.485589 86.963101-34.405601 20.99501-22.944572 31.480235-54.633295 31.480235-95.084589C687.321536 216.901261 676.118944 185.098951 653.705574 160.86706zM796.685727 143.464715l0-9.209756-80.844502 0 0 12.900821 39.476677 34.974559c9.979691 9.629311 18.288254 17.289782 21.67656 22.926152 3.389329 5.617951 5.897555 11.44875 5.897555 17.45658 0 6.844895-1.556513 12.097526-5.530173 15.785521-3.94603 3.647063-11.394981 5.478781-18.896123 5.478781-11.066487 0-24.200137-4.596691-33.41027-13.70821l0 15.487739c9.210133 7.309476 23.094921 10.968819 36.121119 10.968819 11.170868 0 20.987847-2.916423 27.454384-8.788154 6.497237-5.858428 10.191524-13.736862 10.191524-23.661909 0-7.458879-1.823606-14.795984-5.974306-21.982664-4.151723-7.184633-11.237386-16.35141-22.823733-27.443026l-27.572069-26.847461 0-4.328585 54.235404 0L796.685727 143.464715 796.685727 143.464715z"  horiz-adv-x="1024" />

    
    <glyph glyph-name="yingduiqihoubianhua" unicode="&#58882;" d="M545.463995 164.234761c-121.376251 0-219.77322 98.391914-219.77322 219.765239s98.396969 219.765239 219.77322 219.765239c77.744781 0 145.911023-40.47176 184.973244-101.389178l-85.486409-54.710043c-21.031851 32.803103-57.61757 54.66911-99.486835 54.66911-65.360222 0-118.338954-52.976562-118.338954-118.335129s52.978733-118.336152 118.338954-118.336152c41.869265 0 78.454984 21.874193 99.486835 54.661947l85.486409-54.711066C691.375018 204.697311 623.207753 164.234761 545.463995 164.234761zM545.463995 688.290331c-168.0573 0-304.301776-136.238894-304.301776-304.290331 0-168.043251 136.244476-304.289308 304.301776-304.289308 107.641896 0 202.010967 56.047504 256.112312 140.374074l99.603497-63.723324c-75.13729-117.14707-206.204648-194.98588-355.715809-194.98588-233.418544 0-422.641753 189.207269-422.641753 422.62546 0 233.410004 189.223209 422.62546 422.641753 422.62546 149.511161 0 280.578519-77.830623 355.715809-194.977693l-99.603497-63.74072C747.474962 632.251014 653.104868 688.290331 545.463995 688.290331z"  horiz-adv-x="1024" />

    
    <glyph glyph-name="disanfang" unicode="&#58884;" d="M755.169 255.021c24.557 0 44.479 19.922 44.479 44.465 0 14.162-6.619 26.752-16.919 34.893l0.239 0.291c-34.229 26.482-72.28 48.201-113.372 63.926 52.298 44.871 85.572 111.315 85.572 185.608 0 135.076-109.521 244.596-244.582 244.596-135.09 0-244.61-109.52-244.61-244.596 0-74.293 33.273-140.737 85.572-185.608C184.662 334.568 65.934 173.228 65.846-16.246l0-0.088c0.087-24.484 19.981-44.393 44.48-44.393 24.586 0 44.394 19.908 44.48 44.393 0 196.178 159.618 355.768 355.781 355.768 80.426 0 154.49-27.127 214.081-72.299C732.629 259.63 743.354 255.021 755.169 255.021zM510.587 428.568c-85.833 0-155.68 69.818-155.68 155.636 0 85.817 69.847 155.665 155.68 155.665 85.804 0 155.649-69.848 155.649-155.665C666.237 498.385 596.391 428.568 510.587 428.568zM954.808 244.652l-47.434 47.434c-4.315 4.301-11.41 4.301-15.725 0l-7.848-8.064-7.906-7.877-7.877-7.688L649.5 49.951l63.331-63.344 221.357 221.529 4.865 4.865 7.876 7.848 7.878 7.891C959.268 233.041 959.268 240.15 954.808 244.652zM602.066-60.799 696.906-29.09 633.718 34.097Z"  horiz-adv-x="1024" />

    
    <glyph glyph-name="qiye" unicode="&#58885;" d="M923.351-30.3 100.65-30.3c-20.637 0-37.402 16.729-37.402 37.402L63.248 320.599c0 11.36 5.15 22.099 14.062 29.222L273.342 506.443c11.213 8.985 26.59 10.702 39.557 4.493 12.93-6.246 21.185-19.359 21.185-33.713l0-77.836 133.976 107.057c11.25 8.985 26.59 10.702 39.594 4.493 12.93-6.246 21.184-19.359 21.184-33.713l0-78.712 136.605 109.503c11.25 8.985 26.59 10.775 39.557 4.529 12.967-6.21 21.223-19.322 21.223-33.713l0-119.767 42.223 0L768.446 671.501c0 20.637 16.729 37.402 37.402 37.402l117.504 0c20.637 0 37.4-16.765 37.4-37.402l0-664.399C960.751-13.572 943.988-30.3 923.351-30.3zM138.052 44.505l747.895 0L885.947 634.099l-42.697 0 0-312.439c0-20.674-16.766-37.402-37.402-37.402L688.82 284.258c-20.674 0-37.402 16.729-37.402 37.402l0 79.261L514.814 291.416c-11.252-8.984-26.592-10.811-39.595-4.529-12.93 6.211-21.186 19.323-21.186 33.713l0 78.86L320.021 292.439c-11.213-8.984-26.59-10.665-39.557-4.492-12.93 6.246-21.185 19.322-21.185 33.713l0 77.8L138.052 302.593 138.052 44.505zM362.318 132.823c0-12.273-10.118-22.354-22.39-22.354L272.502 110.469c-12.273 0-22.391 10.08-22.391 22.354l0 67.426c0 12.309 10.118 22.426 22.391 22.426l67.426 0c12.271 0 22.39-10.117 22.39-22.426L362.318 132.823zM549.255 133.444c0-12.31-10.08-22.391-22.391-22.391l-67.425 0c-12.309 0-22.39 10.081-22.39 22.391l0 67.425c0 12.31 10.081 22.391 22.39 22.391l67.425 0c12.311 0 22.391-10.081 22.391-22.391L549.255 133.444zM736.193 133.444c0-12.31-10.08-22.391-22.391-22.391l-67.426 0c-12.309 0-22.391 10.081-22.391 22.391l0 67.425c0 12.31 10.082 22.391 22.391 22.391l67.426 0c12.311 0 22.391-10.081 22.391-22.391L736.193 133.444zM448.19 678.441c-51.866 0-97.596 23.376-119.037 65.454-9.388 18.409-2.082 40.908 16.327 50.295 18.408 9.424 40.908 2.083 50.296-16.327 14.354-28.198 62.093-33.823 104.17-12.346 31.668 20.601 71.553 31.266 109.393 27.979 40.836-3.434 75.682-23.231 95.625-54.277 11.139-17.386 6.1-40.544-11.25-51.684-17.424-11.176-40.543-6.136-51.721 11.25-9.971 15.56-28.672 19.322-38.936 20.199-21.076 1.68-45.109-4.894-65.893-18.263C507.654 685.6 476.972 678.441 448.19 678.441z"  horiz-adv-x="1024" />

    
    <glyph glyph-name="zhuguan" unicode="&#58886;" d="M960.364-17.401c-1.162 189.723-120.688 351.83-288.313 416.095 52.294 45.251 85.433 112.07 85.433 186.494 0 135.997-110.654 246.652-246.653 246.652-135.998 0-246.594-110.655-246.594-246.652 0-74.758 33.425-141.836 86.111-187.096C182.709 333.101 63.54 170.138 63.54-20.188c0-24.803 20.087-44.891 44.904-44.891s44.904 20.088 44.904 44.891c0 0.887-0.033 1.764-0.083 2.639 1.427 196.611 161.781 356.129 358.734 356.129 197.314 0 357.903-160.104 358.749-357.209-0.018-0.52-0.04-1.037-0.04-1.559 0-24.803 20.088-44.891 44.876-44.891 24.787 0 44.875 20.088 44.875 44.891C960.458-19.25 960.42-18.325 960.364-17.401zM510.831 742.164c86.539 0 156.961-70.422 156.961-156.976 0-86.51-70.422-156.947-156.961-156.947-86.538 0-156.931 70.437-156.931 156.947C353.899 671.742 424.292 742.164 510.831 742.164zM511.999 293.806c-24.816 0-44.962-20.133-44.962-44.947 0-24.773 20.146-44.918 44.962-44.918 24.817 0 44.905 20.145 44.905 44.918C556.904 273.673 536.816 293.806 511.999 293.806zM511.999 159.181c-24.788 0-44.845-20.059-44.845-44.832l0-134.537c0-24.775 20.058-44.832 44.845-44.832 24.759 0 44.817 20.057 44.817 44.832L556.816 114.349C556.816 139.123 536.757 159.181 511.999 159.181z"  horiz-adv-x="1024" />

    
    <glyph glyph-name="zhuanjia" unicode="&#58887;" d="M236.583 745.991l511.68 0 0-85.373c0-23.571 19.092-42.633 42.647-42.633 23.523 0 42.647 19.062 42.647 42.633L833.557 788.607c0 23.555-19.124 42.648-42.647 42.648L236.583 831.255c-23.523 0-42.647-19.094-42.647-42.648C193.936 765.038 213.06 745.991 236.583 745.991zM941.41-2.294c-0.436 0.89-0.873 2.169-1.311 2.996-0.842 1.715-2.12 3.82-2.964 5.537-52.065 111.554-146.676 199.25-262.984 242.087 58.118 46.937 95.357 118.735 95.357 199.1 0 141.047-114.776 255.824-255.886 255.824-141.016 0-255.793-114.777-255.793-255.824 0-80.056 36.953-151.614 94.672-198.56C236.313 206.479 141.384 119.313 88.581 8.36c-3.838-5.085-6.833-11.075-8.112-17.923 0 0 0 0 0-0.405-0.437-2.543-0.811-5.555-0.811-8.518 0-24.755 20.029-44.77 44.737-44.77 12.355 0 23.461 5.116 31.573 13.229 0.405 0 0.405 0 0.405 0.437 3.4 9.359 7.706 18.703 12.386 28.141 61.793 124.355 189.357 210.657 337.105 213.148 2.578-0.077 5.162-0.128 7.758-0.128 2.307 0 4.605 0.034 6.898 0.096 145.836-3.033 271.913-87.91 334.283-210.152 0-0.422 0-0.422 0-0.843 5.584-10.248 10.233-20.902 14.103-31.572 8.111-7.658 18.78-12.354 30.697-12.354 24.741 0 44.738 20.015 44.738 44.77C944.342-12.963 943.094-7.378 941.41-2.294zM513.623 610.216c89.787 0 162.854-73.034 162.854-162.791 0-89.756-73.066-162.821-162.854-162.821-89.726 0-162.792 73.065-162.792 162.821C350.831 537.182 423.897 610.216 513.623 610.216zM444.393 401.112c23.483 0 42.825 17.499 45.844 40.121l49.891 0c3.019-22.622 22.357-40.121 45.813-40.121 25.582 0 46.298 20.763 46.298 46.298 0 25.551-20.716 46.282-46.298 46.282-23.456 0-42.796-17.474-45.813-40.105l-49.889 0c-3.018 22.632-22.359 40.105-45.845 40.105-25.551 0-46.297-20.731-46.297-46.282C398.096 421.875 418.842 401.112 444.393 401.112z"  horiz-adv-x="1024" />

    
    <glyph glyph-name="fuzeren" unicode="&#58888;" d="M954.231-6.458c-1.037 187.23-118.957 347.254-284.359 410.67 51.565 44.631 84.24 110.526 84.24 183.919 0 134.134-109.138 243.271-243.271 243.271-134.133 0-243.228-109.138-243.228-243.271 0-73.726 32.965-139.879 84.924-184.519C187.211 339.51 69.695 178.769 69.695-8.947c0-24.463 19.812-44.274 44.274-44.274 24.462 0 44.274 19.812 44.274 44.274 0 0.88-0.033 1.753-0.083 2.62 0.757 103.832 46.463 197.172 118.586 261.485 3.548-7.79 9.389-14.637 17.258-19.423L466.639 130.765l0-149.936c0-24.433 19.797-44.231 44.231-44.231s44.231 19.799 44.231 44.231L555.101 129.383l174.909 106.353c7.862 4.782 13.7 11.622 17.25 19.404 72.299-64.478 118.041-158.122 118.569-262.264-0.024-0.605-0.046-1.212-0.046-1.823 0-24.463 19.813-44.274 44.261-44.274s44.26 19.812 44.26 44.274C954.304-8.112 954.277-7.283 954.231-6.458zM510.84 742.954c85.367 0 154.81-69.457 154.81-154.823 0-85.324-69.442-154.795-154.81-154.795-85.337 0-154.78 69.471-154.78 154.795C356.061 673.497 425.503 742.954 510.84 742.954zM512.007 206.714 349.672 305.422c48.642 25.219 103.84 39.479 162.306 39.479 58.486 0 113.697-14.265 162.349-39.488L512.007 206.714z"  horiz-adv-x="1024" />

    
    <glyph glyph-name="tianbaoren" unicode="&#58889;" d="M772.687 263.504c24.361 0 44.074 19.742 44.074 44.059 0 14.044-6.56 26.528-16.776 34.593l0.22 0.269c-33.916 26.24-71.559 47.76-112.303 63.34 51.818 44.459 84.785 110.295 84.785 183.906 0 133.838-108.543 242.354-242.367 242.354-133.823 0-242.339-108.516-242.339-242.354 0-73.611 32.968-139.447 84.758-183.906-165.328-63.44-282.968-223.301-283.054-411.038l0-0.088c0.086-24.26 19.827-43.986 44.043-43.986 24.389 0 44.015 19.727 44.072 43.986 0 194.379 158.212 352.506 352.52 352.506 79.742 0 153.15-26.896 212.205-71.678C750.401 268.054 761.001 263.504 772.687 263.504zM530.32 435.461c-85.016 0-154.195 69.178-154.195 154.209 0 85.031 69.179 154.238 154.195 154.238 85.047 0 154.252-69.207 154.252-154.238C684.572 504.639 615.367 435.461 530.32 435.461zM611.119 156.338c0-24.346 19.713-44.072 44.072-44.072l235.053 0c24.33 0 44.07 19.727 44.07 44.072s-19.74 44.072-44.07 44.072L655.191 200.41C630.832 200.41 611.119 180.683 611.119 156.338zM890.244 24.121 655.191 24.121c-24.359 0-44.072-19.727-44.072-44.072s19.713-44.072 44.072-44.072l235.053 0c24.33 0 44.07 19.727 44.07 44.072S914.574 24.121 890.244 24.121z"  horiz-adv-x="1024" />

    
    <glyph glyph-name="lianxiren" unicode="&#58890;" d="M761.984 278.989c23.656 0 42.85 19.193 42.85 42.835 0 13.644-6.377 25.773-16.299 33.614l0.23 0.281c-32.975 25.512-69.63 46.435-109.244 61.583 50.382 43.226 82.463 107.235 82.463 178.805 0 130.125-105.506 235.632-235.617 235.632-130.167 0-235.673-105.507-235.673-235.632 0-71.569 32.081-135.579 82.463-178.805-160.798-61.681-275.176-217.108-275.231-399.639l0-0.083c0.056-23.588 19.249-42.766 42.85-42.766 23.657 0 42.738 19.178 42.85 42.766 0 188.987 153.769 342.728 342.742 342.728 77.482 0 148.889-26.155 206.282-69.703C740.308 283.408 750.617 278.989 761.984 278.989zM526.367 446.175c-82.687 0-149.974 67.26-149.974 149.932 0 82.673 67.287 149.96 149.974 149.96 82.631 0 149.918-67.287 149.918-149.96C676.285 513.435 608.998 446.175 526.367 446.175zM876.975 242.793c-5.747 1.423-11.717 2.273-18.021 2.273-36.823 0-67.119-29.989-67.119-67.12 0-30.282 20.252-56.004 47.703-64.274-20.588-33.714-48.876-62.573-82.575-83.427-10.266 23.713-33.978 40.284-61.708 40.284-37.103 0-67.119-29.989-67.119-67.135 0-4.281 0.278-8.564 1.449-12.566 5.692-30.854 32.528-54.273 64.833-54.567 18.412 0 28.567 4.798 37.605 8.007 97.138 34.438 169.167 114.907 191.205 213.677 0.949 4.269 2.846 13.266 2.846 20.002C926.074 208.786 905.207 234.786 876.975 242.793z"  horiz-adv-x="1024" />

    
    <glyph glyph-name="guanliyuan" unicode="&#58891;" d="M759.245 270.933c24.097 0 43.597 19.527 43.597 43.582 0 13.886-6.481 26.229-16.578 34.207l0.229 0.281c-33.55 25.956-70.818 47.244-111.094 62.656 51.26 43.98 83.846 109.107 83.846 181.926 0 132.396-107.349 239.743-239.729 239.743-132.396 0-239.744-107.347-239.744-239.743 0-72.818 32.612-137.945 83.859-181.926C200.069 348.904 83.696 190.763 83.611 5.048l0-0.086c0.085-23.998 19.599-43.512 43.583-43.512 24.112 0 43.526 19.514 43.598 43.512 0 192.287 156.479 348.709 348.724 348.709 78.848 0 151.407-26.582 209.841-70.848C737.157 275.459 747.668 270.933 759.245 270.933zM519.515 441.037c-84.116 0-152.563 68.434-152.563 152.549s68.447 152.577 152.563 152.577c84.129 0 152.591-68.462 152.591-152.577S603.644 441.037 519.515 441.037zM918.307 107.797l-21.231 0 0.085 62.516c0 37.184-38.63 67.326-86.372 67.326-47.713 0-86.399-30.143-86.399-67.326l-0.427-62.516-21.656 0c-11.949 0-21.146-9.621-21.146-18.945l-0.482-135.25c0-9.295 10.132-18.93 22.082-18.93l216.057 0c11.922 0 21.118 9.635 21.118 18.93l0.454 135.25C940.389 98.175 930.228 107.797 918.307 107.797zM853.535 107.797l-86.286 0 0 64.914c0 18.564 19.755 31.266 43.54 31.266 23.786 0 43.03-12.701 43.03-31.266L853.535 107.797z"  horiz-adv-x="1024" />

    
    <glyph glyph-name="zuchang" unicode="&#58892;" d="M960.798-17.415c-1.054 190.004-120.728 352.4-288.583 416.759 52.334 45.293 85.495 112.167 85.495 186.649 0 136.123-110.757 246.88-246.895 246.88-136.123 0-246.836-110.757-246.836-246.88 0-74.819 33.454-141.954 86.185-187.256C182.386 333.684 63.126 170.558 63.126-19.942c0-24.825 20.106-44.932 44.932-44.932s44.931 20.106 44.931 44.932c0 0.897-0.033 1.786-0.085 2.671 0.771 105.368 47.154 200.088 120.346 265.354 3.601-7.906 9.528-14.855 17.514-19.713l197.917-120.342c0.181-0.11 0.367-0.201 0.549-0.309 3.588-2.102 7.474-3.729 11.5-4.775 0.152-0.039 0.306-0.071 0.459-0.109 4.115-1.021 8.336-1.44 12.569-1.281 0.354 0.015 0.708 0.013 1.062 0.035 0.861 0.054 1.722 0.142 2.582 0.245 0.076 0.01 0.152 0.014 0.229 0.022 0.854 0.107 1.705 0.248 2.555 0.405 3.014 0.558 5.978 1.439 8.816 2.595 0.49 0.201 0.977 0.412 1.463 0.633 3.82 1.733 7.492 4.032 11.031 6.282 4.936 3.138 10.002 6.069 15 9.106 7.069 4.296 14.114 8.632 21.192 12.914 8.635 5.224 17.242 10.492 25.865 15.736 9.47 5.76 18.953 11.498 28.418 17.267 9.502 5.791 19.019 11.56 28.526 17.34 8.813 5.358 17.62 10.729 26.438 16.082 7.441 4.518 14.874 9.049 22.313 13.57 5.345 3.25 10.694 6.493 16.036 9.747 2.512 1.53 5.031 3.048 7.54 4.582 0.138 0.084 0.275 0.17 0.413 0.254 7.977 4.853 13.901 11.791 17.503 19.687 73.364-65.433 119.781-160.463 120.318-266.144-0.025-0.616-0.047-1.232-0.047-1.854 0-24.825 20.106-44.932 44.932-44.932 24.824 0 44.931 20.106 44.931 44.932C960.873-19.093 960.844-18.252 960.798-17.415zM510.816 743.113c86.634 0 157.12-70.487 157.12-157.12 0-86.589-70.486-157.091-157.12-157.091-86.604 0-157.076 70.502-157.076 157.091C353.74 672.626 424.212 743.113 510.816 743.113zM511.999 198.92 347.256 299.091c49.364 25.593 105.381 40.065 164.715 40.065 59.351 0 115.38-14.478 164.752-40.078L511.999 198.92z"  horiz-adv-x="1024" />

    
    <glyph glyph-name="ziliaorukou" unicode="&#58893;" d="M781.184 832.568 242.815 832.568c-98.672 0-179.383-80.711-179.383-179.383l0-538.353c0-98.672 80.711-179.399 179.383-179.399l538.369 0c98.656 0 179.383 80.728 179.383 179.399L960.567 653.184C960.567 751.856 879.84 832.568 781.184 832.568zM893.294 114.832c0-61.829-50.298-112.127-112.11-112.127L242.815 2.705c-61.813 0-112.111 50.298-112.111 112.127L130.704 653.184c0 61.813 50.298 112.11 112.111 112.11l538.369 0c61.813 0 112.11-50.298 112.11-112.11L893.294 114.832zM484.058 678.841l141.898 0c8.401 0 12.609-1.971 12.609-5.96 0-2.66-3.505-8.088-10.514-16.286-2.44-2.895-6.022-7.353-10.669-13.314l40.629 0c8.777 11.687 13.142 21.731 13.142 30.132 0 10.075-3.395 18.398-10.169 25.047-7.588 7.494-20.025 11.217-37.313 11.217L495.62 709.677l2.097 10.514-33.981 0c-2.55-15.066-6.415-25.845-11.562-32.416-4.318-5.335-11.28-9.888-20.854-13.658l0-30.492c12.86 2.597 23.076 6.399 30.664 11.39C469.68 660.052 477.049 667.984 484.058 678.841zM352.485 565.667l69.369 0L421.854 594.235l-69.369 0L352.485 565.667zM673.079 596.331c-30.132 3.629-53.255 12.171-69.369 25.563-7.009 5.882-13.939 14.988-20.854 27.347l-19.259 0 9.449 22.075-38.893 0c-5.711-13.408-10.264-22.998-13.658-28.74-10.623-18.648-26.221-31.618-46.778-38.893-7.807-2.801-19.619-5.351-35.389-7.697l0-31.368c18.696 1.533 32.932 3.677 42.757 6.493 19.963 5.601 36.358 14.628 49.219 26.972 6.664 6.43 14.299 16.427 22.95 29.96 7.354-10.513 13.142-18.085 17.351-22.779 10.263-11.296 23.232-20.37 38.893-27.16 17.053-7.431 38.252-11.953 63.581-13.486L673.079 596.331zM659.937 474.051l0 56.931c0 18.492-11.906 27.676-35.733 27.676l-226.521 0.188c-10.498 0-18.915-2.848-25.219-8.589-5.366-4.913-8.057-11.562-8.057-19.978l-0.188-56.056 34.34-0.172 0 42.741c0 8.198 4.099 12.266 12.266 12.266l204.806 0c2.566 0 5.007-0.97 7.354-2.972 1.986-1.752 2.973-4.302 2.973-7.713l-0.173-44.15L659.937 474.051zM420.29 710.21l-69.901 0 0-28.567 69.901 0L420.29 710.21zM528.74 524.505l-30.32 0c-2.909-15.989-9.872-28.99-20.854-39.065-15.066-13.751-38.705-23.999-70.949-30.664-10.951-2.315-29.881-4.24-56.759-5.773l0-27.332c27.347 0.829 47.764 2.237 61.312 4.208 27.222 3.974 50.173 11.64 68.853 22.935 10.623 6.446 21.731 15.911 33.292 28.38 7.353-8.135 13.485-14.221 18.398-18.21 13.423-10.857 29.255-19.181 47.466-25.047 21.966-7.103 53.678-11.124 95.136-12.093l0 26.283c-35.498 0.954-65.348 6.555-89.535 16.818C551.393 479.089 532.682 498.926 528.74 524.505zM657.496 345.639l-32.415 0 0-203.398L516.287 142.241l0-32.4 108.794 0 0-62.016 32.415 0 0 62.016 15.942 0 0 32.4-15.942 0L657.496 345.639zM517.35 289.755l85.311 0 0 32.4-85.311 0L517.35 289.755zM465.66 337.049l0-73.217 32.416 0 0 73.217L465.66 337.049zM518.915 199.532l85.327 0 0 32.416-85.327 0L518.915 199.532zM495.103 93.367l-3.52 91.271-32.401 0 4.553-94.948c0.454-10.294 3.504-18.883 9.121-25.751 6.993-8.542 17.444-13.408 31.336-14.55l0 32.244C498.483 82.071 495.448 86.013 495.103 93.367zM504.021 238.597l-60.953 0 0 106.51L410.652 345.107l0-106.51-60.967 0 0-32.416 60.967 0L410.652 47.825l32.416 0L443.068 206.181l60.953 0L504.021 238.597zM355.817 337.049l0-73.217 31.884 0 0 73.217L355.817 337.049zM357.742 89.518c-0.234-4.553-2.91-7.182-8.057-7.885l0-32.244c10.857 1.063 19.509 4.208 25.923 9.465 8.886 7.228 13.673 18.477 14.362 33.809l4.568 91.976-32.229 0L357.742 89.518z"  horiz-adv-x="1024" />

    
    <glyph glyph-name="qiyerukou" unicode="&#58894;" d="M779.539 829.851 244.46 829.851c-98.074 0-178.313-80.223-178.313-178.297l0-535.094c0-98.074 80.238-178.313 178.313-178.313l535.078 0c98.074 0 178.313 80.238 178.313 178.313L957.851 651.554C957.851 749.629 877.613 829.851 779.539 829.851zM890.986 116.461c0-61.453-49.994-111.447-111.447-111.447L244.46 5.014c-61.454 0-111.447 49.994-111.447 111.447L133.013 651.554c0 61.438 49.994 111.432 111.447 111.432l535.078 0c61.453 0 111.447-49.994 111.447-111.432L890.985 116.461zM388.547 586.881l0-132.86-36.574 0 0-32.204 319.181 0 0 32.204L532.37 454.021l0 83.24 138.256 0 0 32.733L532.37 569.994l0 68.778-33.945 0 0-184.75-75.916 0 0 132.86L388.547 586.882zM631.113 653.405l-15.161 32.904c-4.883 10.45-10.9 18.038-18.116 22.812-7.199 4.773-20.308 7.137-39.341 7.137L455.242 716.258c-22.874 0-39.077-10.278-48.578-30.82l-14.975-32.22c-4.649-10.092-11.32-16.25-20.028-18.458-3.375-0.793-10.279-1.275-20.728-1.384l0-32.391c15.565 0.466 27.446 2.162 35.703 5.054 14.166 5.116 24.663 14.975 31.52 29.592l17.059 36.403c1.633 3.592 4.991 6.857 10.092 9.75 2.333 1.151 6.687 1.742 13.062 1.742l101.168 0c9.408 0 15.675-0.591 18.801-1.742 3.934-1.632 7.495-5.753 10.62-12.362l20.2-39.186c5.333-10.341 12.953-17.696 22.827-22.112 9.983-4.525 23.776-6.889 41.425-7.137l0 32.391c-12.19 0-20.79 1.042-25.766 3.125C640.334 639.643 634.814 645.288 631.113 653.405zM626.401 209.855c-1.741-19.392-5.225-33.542-10.449-42.483-5.676-9.641-14.213-16.094-25.596-19.328l0-32.392c16.825 4.184 28.799 8.6 35.874 13.233 12.285 8.117 21.351 21.941 27.15 41.441 2.441 8.365 4.463 21.832 6.096 40.398l12.021 135.985-33.262 0L626.401 209.855zM572.412 346.711l-32.733 0 0-262.221-57.97 0L481.709 346.711l-32.733 0 0-262.221-98.385 0 0-32.748 320.736 0 0 32.748L572.412 84.49 572.412 346.711zM363.481 201.846c0.933-10.683 2.535-20.65 4.867-29.949 3.716-15.084 9.999-27.058 18.8-35.874 9.999-9.859 24.725-16.825 44.24-20.899L431.388 149.085c-5.583 1.291-9.75 2.784-12.549 4.525-5.333 3.374-9.858 8.941-13.575 16.717-4.882 9.858-8.117 24.662-9.75 44.41L384.022 346.711l-33.433 0L363.481 201.846z"  horiz-adv-x="1024" />

    
    <glyph glyph-name="qingdanrukou" unicode="&#58895;" d="M781.182 832.575 242.824 832.575C144.152 832.575 63.432 751.847 63.432 653.183l0-538.342c0-98.688 80.72-179.416 179.393-179.416L781.182-64.575c98.673 0 179.385 80.728 179.385 179.416L960.567 653.183C960.567 751.847 879.855 832.575 781.182 832.575zM893.293 114.84c0-61.829-50.282-112.144-112.111-112.144L242.824 2.696c-61.813 0-112.12 50.314-112.12 112.144L130.704 653.183c0 61.821 50.307 112.119 112.12 112.119L781.182 765.302c61.829 0 112.111-50.298 112.111-112.119L893.293 114.84zM420.551 593.575l-70.418 0 0-31.884 70.418 0L420.551 593.575zM420.551 714.448l-70.418 0 0-32.416 70.418 0L420.551 714.448zM420.551 458.841l-70.418 0 0-32.416 70.418 0L420.551 458.841zM625.515 445.543l-16.99 0-0.156-24.375 15.237 0c15.864-0.219 27.082 1.846 33.637 6.133 8.511 5.726 12.782 17.992 12.782 36.797l0 76.911c0 19.994-13.424 29.976-40.286 29.976L473.462 570.985c-22.889 0-34.341-12.516-34.341-37.485l0-111.955 31.885 0 0 39.394 167.134 0 0-5.945C638.14 448.578 633.932 445.418 625.515 445.543zM471.193 531.903c0 3.755 1.33 6.602 4.021 8.605 2.112 1.627 7.009 2.44 14.722 2.44l131.198 0c11.327 0 17.006-4.162 17.006-12.454l0-2.972L471.193 527.522 471.193 531.903zM471.006 486.72l0 14.519 167.134 0 0-14.519L471.006 486.72zM570.507 631.061l98.47 0 0 28.568-98.47 0 0 15.238 98.47 0 0 28.724-98.47 0 0 15.762-31.884 0 0-15.762-98.97 0 0-28.724 98.97 0 0-15.238-98.97 0 0-28.568 98.97 0 0-18.743L435.272 612.318l0-28.536 238.617 0 0 28.536L570.507 612.318 570.507 631.061zM528.469 153.765l101.786 0c22.325 0 33.465 11.389 33.465 34.168l0 96.874c0 8.166-3.692 15.05-11.046 20.683-6.07 4.787-13.204 7.165-21.371 7.165l-3.504 0 0 33.48-32.761 0 0-33.48L430.016 312.655l0 33.48-32.417 0 0-33.48c-24.875 0-37.313-10.982-37.313-32.948l0-92.993c0-13.079 4.74-22.686 14.19-28.756 4.443-2.785 16.583-4.192 36.453-4.192l85.14 0 0-26.44L352.573 127.326l0-32.416 143.496 0 0-46.278 32.4 0 0 46.278 145.061 0L673.53 127.325 528.469 127.325 528.469 153.765zM528.469 279.707l89.521 0c4.678 0 8.058-0.782 10.153-2.44 2.112-1.753 3.16-4.913 3.16-9.45l0-19.086L528.469 248.731 528.469 279.707zM528.469 215.782l102.834 0 0-19.118c0-3.255-0.876-5.758-2.628-7.51-1.752-1.658-5.319-2.44-10.686-2.44l-89.521 0L528.468 215.782zM496.069 186.714l-91.46 0.156c-4.443 0-7.541 0.876-9.277 2.628-1.752 1.753-2.628 4.976-2.628 9.638l0 16.646 103.366 0L496.07 186.714zM496.069 248.73 392.703 248.73l0 16.959c0 5.632 0.876 9.355 2.628 11.232 1.862 1.878 5.366 2.785 10.498 2.785l90.24 0L496.069 248.73z"  horiz-adv-x="1024" />

    
    <glyph glyph-name="wentirukou" unicode="&#58896;" d="M780.529 831.482l-537.06 0c-98.416 0-178.947-80.516-178.947-178.947l0-537.037c0-98.447 80.531-178.979 178.947-178.979l537.06 0c98.417 0 178.947 80.531 178.947 178.979L959.476 652.534C959.476 750.966 878.946 831.482 780.529 831.482zM892.368 115.498c0-61.678-50.16-111.869-111.839-111.869l-537.06 0c-61.646 0-111.838 50.191-111.838 111.869L131.631 652.534c0 61.662 50.191 111.838 111.838 111.838l537.06 0c61.679 0 111.839-50.176 111.839-111.838L892.368 115.498zM637.134 664.52l0-187.172c0-7.788-1.561-13.344-4.713-16.605-4.308-4.542-8.74-6.742-13.297-6.633l-7.679 0 0-32.337 13.266 0c16.2 0 28.748 6.539 37.581 19.586 4.775 6.867 7.179 17.542 7.179 31.979L669.471 671.512c0 14.577-4.307 26.048-12.953 34.429-8.958 8.74-21.475 13.11-37.55 13.11L460.435 719.051l0-32.868 155.194 0C629.956 686.182 637.134 678.957 637.134 664.52zM425.319 493.423c0-11.065 2.747-19.384 8.209-24.987 6.18-6.18 14.327-9.255 24.472-9.255l111.838 0c8.303 0 15.575 2.965 21.849 8.912 6.056 5.587 9.084 14.39 9.084 26.375L600.771 612.799c0 8.49-2.903 15.794-8.74 21.834-5.587 5.837-14.202 8.74-25.845 8.74L455.035 643.373c-8.147 0-15.139-2.903-20.976-8.74-5.837-5.697-8.74-13.282-8.74-22.708L425.319 493.423zM457.126 598.113c0 8.271 4.432 12.407 13.297 12.407l86.149 0c4.09 0 6.805-0.765 8.21-2.278 2.435-2.544 3.683-6.352 3.683-11.346l0-92.798c0-8.053-3.87-12.064-11.549-12.064l-88.615 0c-7.429 0-11.174 5.072-11.174 15.201L457.127 598.113zM430.22 718.52l-75.162 0 0-30.23 75.162 0L430.22 718.52zM387.395 661.555l-32.337 0 0-239.782 32.337 0L387.395 661.555zM384.773 345.542c-8.271 0-15.264-2.903-20.976-8.74-5.587-5.587-8.365-11.986-8.365-19.228l0-71.822c0-6.648 2.965-12.984 8.896-19.04 5.369-5.618 14.514-8.396 27.437-8.396l85.993 0c8.022 0 14.952 2.871 20.789 8.553 5.931 5.587 8.927 13.515 8.927 23.784l0 65.705c0 8.146-2.871 15.014-8.584 20.632-5.837 5.681-13.858 8.553-24.096 8.553L384.773 345.543zM475.136 261.296c0-7.085-3.496-10.644-10.488-10.644l-66.766 0c-6.992 0-10.425 3.559-10.301 10.644l0.156 6.992 87.398 0L475.135 261.296zM475.136 295.724l-87.398 0-0.156 6.836c-0.125 7.086 3.933 10.644 12.236 10.644l63.239 0c8.053 0 12.08-3.558 12.08-10.644L475.137 295.724zM523.705 308.835l58.713 0 0-22.536L557.602 286.299c-8.708 0.093-16.168-3.153-22.349-9.802-5.244-5.587-7.866-12.642-7.866-21.131l0.156-90.707 32.337 0 0 78.627c0 7.116 4.152 10.675 12.424 10.675l55.903 0c6.056 0 9.114-3.683 9.114-11.019l0-78.283 32.306 0 0 93.484c0 6.898-2.685 13.234-8.021 19.071-5.588 6.056-13.172 9.084-22.724 9.084l-23.94 0L614.942 308.835l58.557 0 0 32.337L523.705 341.172 523.705 308.835zM624.711 160.975c-6.398 11.3-9.677 24.94-9.77 40.922l0 30.745-33.212 0 0.188-26.75c0.094-20.508-4.557-37.27-13.983-50.316-8.054-10.956-22.724-22.193-44.042-33.742l0-35.802c28.653 11.424 53.469 29.466 74.443 54.155 9.802-12.235 21.507-23.16 35.115-32.836 9.115-6.431 22.443-13.766 40.048-22.037l0 35.303C648.309 134.256 632.078 147.71 624.711 160.975zM456.938 112.064l47.726 0 0 32.15-47.726 0 0 26.563 54.187 0 0 31.619L350.532 202.396l0-31.619 74.6 0 0-89.489-5.212 0c-5.837 0-10.956 2.56-15.388 7.71-4.214 4.869-6.305 12.173-6.305 21.849l0 48.912-31.807 0 0-57.495c0-8.396-5.306-15.357-15.888-20.976l0-32.307c7.679 1.624 13.391 3.371 17.105 5.244 3.964 1.842 8.989 5.649 15.045 11.331 12.922-11.05 24.752-16.575 35.49-16.575l254.796 0 0 31.433-216.029 0.874L456.939 112.064z"  horiz-adv-x="1024" />

    
    <glyph glyph-name="shenghuizong" unicode="&#58897;" d="M941.04 599.642l-21.738-25.675-94.576 74.384 21.728 25.674c12.001 14.184 33.828 16.167 48.749 4.436l40.535-31.884C950.668 634.845 953.04 613.824 941.04 599.642zM748.906 731.016c0 22.545-18.279 40.825-40.824 40.825L177.369 771.841c-22.545 0-40.825-18.28-40.825-40.825l0-653.198c0-22.545 18.28-40.834 40.825-40.834l204.114 0 0-61.238L177.369-24.254c-56.374 0-102.063 45.709-102.063 102.072L75.306 731.016c0 56.374 45.689 102.063 102.063 102.063l530.722 0c54.07 0 97.866-42.181 101.385-95.364l-60.57-73.307L748.906 731.016zM442.721 179.88l408.257 0c22.546 0 40.815-18.279 40.815-40.824l0-163.311c0-22.525-18.27-40.824-40.815-40.824L442.721-65.079c-22.536 0-40.815 18.299-40.815 40.824L401.906 139.056C401.906 161.601 420.185 179.88 442.721 179.88zM708.091-24.254l0-20.412 20.412 0 61.237 0 20.413 0 0 20.412 0 20.412 20.412 0 0-20.412 20.412 0 0 20.412-20.412 0 0 20.412-20.412 0 0-20.412-20.413 0 0-20.412-61.237 0 0 40.824 20.402 0 0-20.412 20.413 0 0 20.412-20.413 0 0 20.414 61.248 0 20.412 0 0 20.422 0 40.824 0 20.414-20.412 0-20.413 0 0 20.412 20.413 0 0 20.412-20.413 0 0-20.412-20.422 0 0-20.412-40.815 0 0 20.412-20.412 0 0 20.412-20.413 0 0-20.412 20.413 0 0-20.412-20.413 0-20.422 0 0-81.66 20.422 0 40.825 0 0-20.414-20.412 0L708.091-24.254zM503.957 118.644l0-142.898 0-20.412 142.896 0 20.402 0 0 20.412 20.422 0 0 40.824-20.422 0 0-20.412-20.402 0 0-20.412L524.378-24.254 524.378 118.644l122.476 0 0 20.412L503.957 139.056 503.957 118.644zM442.721-44.666l20.422 0 0 40.824 20.413 0 0 40.826-20.413 0 0-40.826-20.422 0L442.721-44.666zM442.721 118.644l20.422 0 0-20.414-20.422 0 0-20.412 20.422 0 0-20.412 20.413 0 0 20.412-20.413 0 0 20.412 20.413 0 0 20.414-20.413 0 0 20.412-20.422 0L442.721 118.644zM687.678 98.23l122.476 0 0-40.824L687.678 57.406 687.678 98.23zM748.906 200.293l0 88.457 61.248 68.045 0-156.502L748.906 200.293zM897.584 548.291 647.711 252.978l-94.587 74.385L802.997 622.675 897.584 548.291zM687.678 649.366l0-20.412c0-11.273-9.148-20.413-20.412-20.413L442.721 608.541l0 61.237 224.545 0C678.53 669.779 687.678 660.639 687.678 649.366zM524.378 200.293l17.893 114.232 94.577-74.385L524.378 200.293zM442.721 486.067l0 40.825L635.312 526.892l-50.582-61.237L422.308 465.655C433.581 465.655 442.721 474.795 442.721 486.067zM177.369 526.892 177.369 690.192c0 22.545 18.27 40.825 40.824 40.825l163.29 0c22.556 0 40.835-18.279 40.835-40.825l0-163.299c0-22.545-18.279-40.825-40.835-40.825l-163.29 0C195.639 486.067 177.369 504.347 177.369 526.892zM197.771 588.129l40.834 0 0-61.237 0-20.413 142.877 0 0 20.413 0 61.237 0 20.413-61.227 0 0 20.413 40.825 0 0 20.412 40.825 0 0 20.413-40.825 0 0 20.413-20.422 0 0-20.413 20.422 0 0-20.413-40.825 0 0 61.237-20.413 0 0-61.237 20.413 0 0-20.412-81.65 0 0-20.413-40.834 0L197.771 588.129zM197.771 628.954l20.422 0 0 20.412 40.825 0 0 20.413 20.403 0 0 20.413-20.403 0 0-20.413-40.825 0 0-20.413-20.422 0L197.771 628.954zM361.081 567.717 259.018 567.717l0 20.412 102.063 0L361.081 567.717zM361.081 526.892 259.018 526.892 259.018 547.305l102.063 0L361.081 526.892zM197.781 363.593c0 11.282 9.13 20.412 20.413 20.412l299.08 0-33.717-40.824 1.276-20.414L218.193 322.767c-11.282 0-20.413 9.141-20.413 20.414L197.78 363.593zM218.184 179.88c-11.272 0-20.403 9.139-20.403 20.412L197.781 220.705c0 11.273 9.13 20.414 20.403 20.414l271.751 0 2.55-40.826L381.483 200.293l0-20.412L218.184 179.881z"  horiz-adv-x="1024" />

    
    <glyph glyph-name="xinwenrukou" unicode="&#58898;" d="M780.533 764.372c61.679 0 111.839-50.161 111.839-111.839l0-537.035c0-61.71-50.16-111.87-111.839-111.87L243.482 3.628c-61.663 0-111.855 50.16-111.855 111.87L131.627 652.533c0 61.679 50.192 111.839 111.855 111.839L780.533 764.372M780.533 831.482 243.482 831.482c-98.433 0-178.965-80.5-178.965-178.949l0-537.035c0-98.448 80.532-178.98 178.965-178.98l537.051 0c98.433 0 178.949 80.532 178.949 178.98L959.482 652.533C959.482 750.982 878.965 831.482 780.533 831.482L780.533 831.482zM350.78 670.668l0 32.15 69.045 0 0 15.544 32.337 0 0-15.544 69.202 0 0-32.15L350.78 670.668zM350.78 545.001l0 32.337 69.045 0L419.825 598.845l-69.045 0 0 32.307 19.758 0 0 27.968 32.15 0 0-27.968 66.423 0 0 27.968 32.322 0 0-27.968 19.931 0 0-32.307L452.162 598.845l0-21.506 69.202 0 0-32.337L452.162 545.002l0-93.33c0-10.332-3.792-18.385-11.362-24.097-5.603-4.214-12.236-6.305-19.93-6.305l-20.273 0 0 32.15 8.397 0c7.21 0 10.831 4.026 10.831 12.08l0 79.502L350.78 545.002zM350.78 421.113l0 31.963c5.15 0.843 7.803 3.714 8.053 8.74l3.137 63.957 32.509 0-3.153-57.652c-0.593-10.987-1.623-18.479-3.137-22.567-3.387-8.366-9.614-15.014-18.713-19.915C364.951 423.205 358.708 421.675 350.78 421.113zM478.007 525.773l31.994 0 3.152-63.426c0.219-5.462 2.966-8.428 8.21-8.927l0-32.307c-25.971 2.435-39.58 16.762-40.734 42.982L478.007 525.773zM530.619 421.269l0 32.15c5.478 0.375 8.225 3.121 8.225 8.24L538.844 673.633c0 16.294 6.695 28.717 20.086 37.238 7.351 4.651 17.933 6.992 31.807 6.992l82.483 0 0-32.337-84.06 0c-4.775 0-8.974-1.623-12.579-4.9-3.604-3.371-5.415-7.741-5.415-13.11l0-33.024 102.054 0 0-31.807-20.258 0 0-181.415-32.338 0L620.624 602.684l-49.458 0 0-137.372c0-14.889-4.886-26.532-14.687-34.772C549.487 424.609 540.873 421.488 530.619 421.269zM354.994 316.141l0 30.246 75.132 0 0-30.246L354.994 316.141zM354.994 49.636 354.994 289.422l32.322 0 0-239.785L354.994 49.637zM413.878 93.149l0 32.868 17.823 0L431.701 249.406l-17.823 0 0 32.306 197.475 0 0-32.306-19.384 0 0-123.389 19.384 0 0-32.868-19.384 0 0-31.808-32.338 0 0 31.808L413.878 93.149zM460.887 314.049l0 32.338 158.691 0c16.075 0 28.545-4.37 37.395-13.11 8.631-8.396 12.938-19.883 12.938-34.429l0-197.834c0-16.293-3.559-28.436-10.676-36.333-8.833-10.02-20.195-15.045-34.069-15.045l-13.813 0 0 32.338 8.225 0c11.986 0 17.995 7.741 17.995 23.254L637.573 292.387c0 14.452-7.163 21.662-21.491 21.662L460.887 314.049zM464.211 229.991l95.42 0 0 19.415-95.42 0L464.211 229.991zM464.211 178.613l95.42 0 0 19.228-95.42 0L464.211 178.613zM464.211 126.017l95.42 0L559.631 146.805l-95.42 0L464.211 126.017z"  horiz-adv-x="1024" />

    
    <glyph glyph-name="jigourukou" unicode="&#58899;" d="M780.856 764.834c61.737 0 111.974-50.221 111.974-111.989l0-537.674c0-61.784-50.236-112.006-111.974-112.006L243.159 3.165c-61.753 0-111.99 50.222-111.99 112.006L131.169 652.844c0 61.769 50.237 111.989 111.99 111.989L780.856 764.833M780.856 832.025 243.159 832.025c-98.552 0-179.18-80.613-179.18-179.18l0-537.674c0-98.567 80.628-179.196 179.18-179.196l537.697 0c98.552 0 179.164 80.629 179.164 179.196L960.02 652.844C960.02 751.411 879.408 832.025 780.856 832.025L780.856 832.025zM351.023 423.021l0 30.095c3.156 0.609 5.188 1.672 6.125 3.329 0.813 1.75 1.297 5.688 1.406 11.719l1.75 176.555 30.267 0-2.797-186.353c-0.109-11.547-4.969-20.813-14.532-27.814C367.54 426.349 360.133 423.818 351.023 423.021zM354.352 661.86l0 32.377 47.768 0 0 24.673 32.376 0 0-24.673L478.232 694.237l0-32.377-43.736 0 0-240.058-32.376 0L402.12 661.86 354.352 661.86zM449.356 421.802 449.356 645.235l26.782 0 0-223.433L449.356 421.802zM484.014 421.099l0 32.72c8.5 2.891 14.344 8.579 17.485 16.97 3.048 8.141 4.485 19.517 4.376 34.126l-0.344 167.618c0 16.094 3.328 27.47 9.969 34.126 5.953 5.953 14.704 8.922 26.251 8.922l67.535 0c15.297 0 25.829-2.719 31.673-8.047 7.234-6.563 10.845-17.235 10.845-32.017l0-195.103c0-10.844 2.344-17.938 7-21.173 3.391-2.359 8.406-3.766 15.048-4.204l0-33.236c-16.329 0.078-28.939 3.938-37.783 11.547-11.454 9.704-17.157 24.064-17.157 43.034L618.912 666.235c0 6.735-0.766 11.11-2.266 12.954-1.75 2.453-5.188 3.672-10.329 3.672l-55.111 0c-5.359 0-8.938-1.313-10.688-4.031-1.625-2.359-2.438-6.203-2.438-11.719l0-168.68c0-25.189-4.906-44.44-14.704-57.737C516.14 430.99 503.014 424.505 484.014 421.099zM350.148 50.668l0 30.095c5.25 0.281 7.875 4.375 7.875 12.438l1.406 179.344 30.095 0-1.75-184.25c-0.109-12.251-4.844-22.032-14.173-29.564C367.883 54.355 360.055 51.636 350.148 50.668zM353.476 289.514l0 32.377 48.299 0 0 24.845 32.361 0 0-24.845 43.752 0 0-32.377-43.752 0 0-240.065-32.361 0L401.775 289.514 353.476 289.514zM449.012 49.449 449.012 272.888l26.954 0 0-223.439L449.012 49.449zM495.733 259.591l0 45.143c8.985 7.875 14.798 21.876 17.501 42.002l33.064 0-5.954-22.579 85.91 0c14.47 0 26.08-4.375 34.83-13.298 8.281-8.391 12.423-19.235 12.423-32.532l0-184.97c0-12.938-4.032-23.438-12.079-31.658-8.047-8.406-18.954-12.594-32.72-12.594l-76.457 0 0 32.376 66.315 0c8.5 0 14.454 1.844 17.845 5.407 3.141 3.406 4.719 9.469 4.719 18.031L641.13 269.748c0 7.173-1.75 12.423-5.25 15.923-3.953 4.109-8.751 6.125-14.345 6.125L528.282 291.796c-5.142-7.875-9.688-13.828-13.657-17.844C510.781 270.263 504.484 265.466 495.733 259.591zM532.829 253.654l33.938 0-29.048-83.645c-3.391-9.267-5.063-15.048-5.063-17.142 0-2.281 0.688-4.11 2.094-5.423 1.406-1.141 4.719-1.75 9.969-1.75l33.252 0c8.984 0 13.47 2.875 13.47 8.563 0 1.922-0.172 3.859-0.531 5.781l-8.048 47.596 29.58 0 7.344-47.08c0.594-3.938 0.875-7.953 0.875-12.063 0-11.203-3.328-19.859-9.969-26.079-5.954-5.43-14.001-8.211-24.143-8.211l-55.83 0c-8.157 0-15.626 3.32-22.392 9.789-5.845 5.782-8.751 13.392-8.751 22.923 0 5.767 1.859 14.001 5.61 24.846L532.829 253.654z"  horiz-adv-x="1024" />

    
    <glyph glyph-name="cengjiliuzhuan" unicode="&#58900;" d="M194.012 341.959 335.48 483.87 297.567 521.785 64 288.337 959.999 288.337 959.999 341.959Z"  horiz-adv-x="1024" />

    
    <glyph glyph-name="foujue" unicode="&#58901;" d="M368.514 34 368.514 352.005l328.513 0L697.027 434.615 368.514 434.615 368.514 651.391l379.604 0 0 82.608L275.881 733.999l0-700L368.514 33.999 368.514 34z"  horiz-adv-x="1024" />

    
    <glyph glyph-name="shengfagai" unicode="&#58902;" d="M181.218 734 88.585 734 88.585 34 525.967 34 525.967 116.607 181.218 116.607ZM909.632 283.13c-17.19 22.563-41.306 37.365-72.342 44.528 23.873 10.981 41.9 25.784 54.076 44.406 12.176 18.624 18.266 39.276 18.266 61.954 0 23.874-6.328 46.437-19.101 67.685-12.773 21.249-31.278 38.082-55.389 50.375-24.115 12.294-50.495 18.385-79.146 18.385-41.542 0-76.279-11.82-104.213-35.574-27.934-23.753-45.839-57.298-53.716-100.51l64.46-11.461c4.774 31.515 15.519 55.151 32.229 70.908 16.713 15.756 37.603 23.635 62.671 23.635 25.308 0 45.959-7.759 61.956-23.279 15.992-15.516 23.992-35.093 23.992-58.732 0-29.84-10.982-51.923-32.947-66.25-21.965-14.324-46.675-21.486-74.132-21.486-2.624 0-6.085 0.238-10.384 0.715l-7.162-56.582c18.145 4.775 33.304 7.162 45.479 7.162 29.846 0 54.433-9.55 73.775-28.771 19.335-19.217 29.005-43.687 29.005-73.293 0-31.038-10.385-57.063-31.276-78.07-20.891-21.009-46.555-31.515-76.874-31.515-25.546 0-47.154 8.116-64.94 24.232s-30.441 42.377-37.843 78.905l-64.46-8.595c4.297-43.691 21.725-79.262 52.168-106.719 30.438-27.457 68.638-41.186 114.715-41.186 51.09 0 93.351 15.998 126.776 47.871 33.424 31.873 50.137 70.667 50.137 116.508C935.416 232.281 926.822 260.571 909.632 283.13z"  horiz-adv-x="1024" />

    
    <glyph glyph-name="shifagai" unicode="&#58903;" d="M183.917 734l-92.629 0 0-700 437.365 0 0 82.601L183.917 116.601 183.917 734zM675.236 95.95c7.164 11.697 16.234 23.396 27.219 34.974 10.98 11.549 35.809 33.573 74.484 66.043 46.313 39.148 79.498 69.949 99.432 92.39 19.936 22.439 34.137 43.808 42.732 64.103 8.596 20.29 12.893 40.939 12.893 61.95 0 41.301-14.682 75.915-44.047 103.849-29.363 27.933-69.234 41.898-119.604 41.898-49.898 0-89.646-12.952-119.252-38.854-29.602-25.904-46.672-63.563-51.207-112.98l66.248-6.804c0.238 32.944 9.67 58.729 28.289 77.348 18.623 18.623 43.451 27.934 74.486 27.934 29.363 0 53.236-8.772 71.502-26.318 18.264-17.551 27.336-39.094 27.336-64.641 0-24.349-10.029-50.192-30.084-77.528-20.053-27.336-58.607-64.399-115.664-111.19-36.768-30.081-64.818-56.58-84.275-79.497-19.455-22.95-33.66-46.228-42.496-69.862-5.49-14.323-7.998-29.246-7.518-44.762l347 0 0 61.95L675.236 95.953 675.236 95.95z"  horiz-adv-x="1024" />

    
    <glyph glyph-name="tongguo" unicode="&#58904;" d="M279.745 141.359c23.548-35.848 56.101-62.742 97.427-80.576 41.442-17.836 92.812-26.783 153.992-26.783 48.365 0 91.884 8.834 130.44 26.553 38.67 17.719 68.338 42.48 88.885 74.338 20.662 31.861 30.936 65.799 30.936 101.814 0 36.307-9.351 68.396-28.166 96.273-18.699 27.878-47.789 50.85-87.268 69.03-27.015 12.293-76.995 26.722-149.837 43.172-72.723 16.451-117.743 32.554-135.059 48.253-17.547 15.699-26.317 35.728-26.317 60.026 0 27.995 12.466 51.946 37.168 71.802 24.82 19.854 64.299 29.78 118.438 29.78 52.059 0 91.425-10.908 117.974-32.782 26.666-21.875 42.249-54.198 46.868-96.968l85.883 6.468c-1.501 39.709-12.584 75.262-33.246 106.66-20.548 31.397-50.1 55.18-88.422 71.34-38.327 16.159-82.537 24.241-132.75 24.241-45.483 0-86.923-7.675-124.207-23.086-37.171-15.412-65.567-37.921-84.96-67.646-19.395-29.725-29.092-61.642-29.092-95.813 0-31.108 7.966-59.159 23.779-84.266 15.931-25.107 39.94-46.116 72.264-63.028 24.934-13.219 68.568-27.301 130.672-42.249 62.219-14.949 102.39-25.916 120.513-33.016 28.397-10.793 48.715-24.068 60.949-39.939 12.352-15.871 18.47-34.4 18.47-55.641 0-20.949-6.347-40.229-19.161-57.947-12.696-17.721-32.206-31.631-58.41-41.789-26.086-10.158-56.332-15.234-90.5-15.234-38.44 0-73.068 6.695-103.891 20.084-30.707 13.389-53.447 30.938-68.107 52.639-14.544 21.701-23.894 49.463-27.934 83.344l-84.501-7.391C243.843 217.775 256.195 177.197 279.745 141.359z"  horiz-adv-x="1024" />

    
    <glyph glyph-name="xianbianzhi" unicode="&#58905;" d="M922.703 425.963c-7.879 30.678-18.744 56.699-32.59 78.07-13.848 21.365-31.396 37.718-52.643 49.06-21.252 11.342-45.957 17.012-74.133 17.012-38.199 0-69.832-10.268-95.021-30.801-25.184-20.532-44.166-49.718-56.939-87.558-12.771-37.844-19.217-87.798-19.217-149.873 0-98.599 17.311-169.749 51.928-213.44 28.887-36.288 68.637-54.433 119.25-54.433 38.439 0 70.314 10.327 95.5 30.98 25.188 20.651 44.051 49.898 56.699 87.739 12.658 37.839 18.98 87.556 18.98 149.155C934.517 353.921 930.58 395.285 922.703 425.963zM838.066 129.978c-20.174-28.649-45.121-42.974-74.729-42.974-29.604 0-54.432 14.265-74.605 42.796-20.174 28.529-30.32 85.889-30.32 172.073 0 86.187 11.102 145.276 33.305 177.269 17.666 25.069 41.303 37.602 70.908 37.602 30.08 0 55.27-14.206 75.443-42.617 20.174-28.409 30.201-85.827 30.201-172.254C868.267 215.926 858.24 158.628 838.066 129.978zM182.114 734 89.482 734 89.482 34 526.863 34 526.863 116.602 182.114 116.602Z"  horiz-adv-x="1024" />

    
    <glyph glyph-name="xianfagai" unicode="&#58906;" d="M231.895 734l-92.636 0 0-699.998 437.379 0 0 82.609L231.895 116.611 231.895 734zM843.197 561.148c-11.221-22.678-30.32-46.077-57.298-70.188-26.979-24.112-58.491-44.646-94.545-61.597l0-62.313c20.053 7.4 42.735 18.501 67.921 33.304 25.189 14.802 45.48 29.606 61 44.408l0-410.761 64.465 0L884.74 561.148 843.197 561.148z"  horiz-adv-x="1024" />

    
    <glyph glyph-name="wenhao" unicode="&#58907;" d="M513.917676 639.465323c-86.104053 0-155.911956-69.866231-155.911956-155.847487 0-5.572926 0.717338-10.966773 1.316995-16.420995l82.753749 12.941753c-0.242524 2.217505-1.321088 4.196579-1.321088 6.474458 0 39.423895 31.995715 71.424726 71.424726 71.424726 39.60809 0 71.485101-32.000831 71.485101-71.424726 0-29.962405-18.454304-55.365982-44.402279-66.030879-3.053546-2.038426-62.616106-43.141566-82.868359-112.711038-0.296759-1.078565-0.776689-1.558495-1.137916-2.514263-0.659009-4.018523-0.776689-8.328689-1.198292-12.466939l88.683808-0.539282c4.192485 26.78504 22.825868 47.819099 48.352241 55.187927l0.361227 0.360204c41.641399 23.547299 61.175291 62.853513 68.667939 82.090647-0.122797 0-0.242524 0.059352-0.360204 0.118704 6.230911 16.777105 10.066263 34.69315 10.066263 53.629431C669.828608 569.658444 599.962378 639.465323 513.917676 639.465323L513.917676 639.465323zM512.002047 832.107831c-247.469208 0-448.080202-200.610994-448.080202-448.080202 0-247.464091 200.610994-448.134437 448.140577-448.134437S960.078155 136.562515 960.078155 384.026606C960.078155 631.495814 759.526513 832.107831 512.002047 832.107831L512.002047 832.107831zM513.258667 44.346253c-188.505281 0-341.482395 152.853293-341.482395 341.299223 0 188.56975 152.916738 341.482395 341.482395 341.482395 188.505281 0 341.482395-152.911622 341.482395-341.482395C854.741062 197.199547 701.824323 44.346253 513.258667 44.346253L513.258667 44.346253zM514.160199 236.207979c-30.021757 0-54.410214-24.508183-54.410214-54.469566 0-30.135344 24.388457-54.464449 54.410214-54.464449 30.015617 0 54.464449 24.329105 54.464449 54.464449C568.624648 211.699796 544.175817 236.207979 514.160199 236.207979L514.160199 236.207979zM514.160199 236.207979"  horiz-adv-x="1024" />

    
    <glyph glyph-name="qq" unicode="&#59032;" d="M505.6 754.4c121.6 12.8 300.8-76.8 307.2-294.4 0 0 51.2-38.4 32-121.6 0 0 115.2-134.4 70.4-262.4-6.4-32-32-38.4-76.8 51.2-12.8-32-51.2-102.4-64-115.2 0 0 51.2 0 57.6-51.2 19.2-25.6 12.8-51.2 6.4-51.2-12.8-32-153.6-115.2-300.8-12.8L492.8-103.2c0 0-108.8-89.6-256-32-76.8 32-51.2 83.2-44.8 89.6-6.4 19.2 12.8 44.8 57.6 57.6 0 0-44.8 44.8-64 108.8 0 0-38.4-70.4-70.4-64-32 6.4-25.6 192 76.8 275.2 0 0-25.6 44.8 0 70.4 0 0-6.4 32 25.6 51.2C224 453.6 224 741.6 505.6 754.4z"  horiz-adv-x="1024" />

    
    <glyph glyph-name="baogaorukou" unicode="&#58908;" d="M779.547 829.852 244.452 829.852c-98.075 0-178.304-80.223-178.304-178.296l0-535.095c0-98.075 80.229-178.314 178.304-178.314l535.094 0c98.082 0 178.306 80.239 178.306 178.314L957.852 651.556C957.853 749.63 877.629 829.852 779.547 829.852zM890.986 116.462c0-61.438-49.992-111.449-111.439-111.449L244.452 5.013c-61.446 0-111.44 50.01-111.44 111.449L133.012 651.557c0 61.453 49.994 111.431 111.44 111.431l535.094 0c61.446 0 111.439-49.978 111.439-111.431L890.986 116.462 890.986 116.462zM400.633 479.774c0-7.635-1.773-13.171-5.303-16.592-3.312-3.188-9.641-4.789-18.987-4.789l-11.118 0 0-31.986 14.368 0c9.128 0 15.332 0.342 18.645 1.027 6.158 1.135 11.911 3.654 17.276 7.527 11.181 7.868 16.763 20.122 16.763 36.776l0 88.091c10.947 6.733 21.21 11.865 30.789 15.395l0 31.302c-11.74-2.846-22.004-6.5-30.789-10.947l0 58.499 29.079 0 0 32.671-29.079 0 0 30.447-31.644 0 0-30.447-48.237 0 0-32.671 48.237 0 0-77.657c-9.579-5.365-17.167-9.066-22.75-11.118-6.391-2.286-14.882-4.105-25.486-5.473l0-33.013c16.763 1.602 32.842 6.095 48.237 13.513L400.634 479.774 400.633 479.774zM669.696 555.72c0 5.583-1.26 10.885-3.763 15.908-3.421 6.842-8.552 11.865-15.394 15.052-5.131 2.394-15.799 3.592-31.986 3.592L508.566 590.272l0 80.565c0 9.579 6.391 14.368 19.158 14.368l92.026 0c3.996 0 7.075-1.027 9.237-3.079 1.819-1.819 2.737-5.583 2.737-11.289l0-15.224c0-5.583-0.918-9.299-2.737-11.118-1.944-1.944-6.049-2.908-12.316-2.908l-57.644 0 0-31.644L636 609.943c8.895 0 16.654 4.618 23.263 13.855 2.737 3.872 4.105 14.943 4.105 33.184l0 33.183c0 6.267-2.799 12.253-8.382 17.961-5.815 6.049-14.99 9.066-27.539 9.066L515.408 717.192c-11.056 0-20.355-3.701-27.882-11.118-3.996-3.997-6.764-8.817-8.288-14.446-1.555-5.66-2.317-13.839-2.317-24.554l0-240.84 31.644 0 0 131.88 107.42 0 11.631 0.171c4.789 0 7.122-1.602 7.013-4.789-0.109-2.504-3.25-8.724-9.408-18.645-6.609-10.605-16.934-23.497-30.961-38.658-7.184 5.816-12.549 10.885-16.079 15.224-3.872 4.789-9.516 13.109-16.934 24.973l-35.579 0c5.925-12.767 11.118-22.641 15.566-29.592 5.473-8.785 13.575-19.095 24.289-30.96-13.917-6.5-29.996-12.082-48.237-16.763l0-32.842c16.872 3.763 29.825 7.246 38.828 10.434 10.497 3.654 22.859 9.516 37.119 17.618 15.394-8.552 28.845-14.773 40.368-18.645 8.552-2.846 20.635-5.987 36.263-9.408l0 31.986c-16.654 5.131-32.608 11.57-47.895 19.328C653.788 514.948 669.696 541.01 669.696 555.72zM525.158 282.194l135.815 0 0 32.158L525.158 314.352 525.158 345.14l-31.644 0 0-30.789-84.5 0 7.868 29.592-32.842 0-2.566-9.579-3.763-14.197c-2.737-10.154-4.276-15.799-4.618-16.934-1.711-5.707-3.825-9.812-6.329-12.316-3.188-3.312-7.868-5.473-14.026-6.5l0-31.816c9.579 0.793 17.789 3.188 24.631 7.185 7.868 4.448 15.115 11.911 21.724 22.407l94.42 0 0-45.671L351.712 236.522l0-31.473 315.589 0 0 31.473L525.158 236.522 525.158 282.194zM625.223 181.787l-234.34 0c-10.947 0-19.22-3.079-24.802-9.237-5.131-5.707-7.697-13.233-7.697-22.579l0-65.513c0-8.444 2.737-15.566 8.21-21.382 5.24-5.583 14.306-8.382 27.197-8.382l233.998 0c21.895 0 32.842 11.461 32.842 34.381l0 60.381C660.63 171.011 648.827 181.787 625.223 181.787zM628.986 96.775c0-7.185-4.214-10.776-12.658-10.776L401.317 85.999c-7.527 0-11.289 3.592-11.289 10.776l0 43.618c0 6.5 3.592 9.75 10.776 9.75l218.261 0c6.609 0 9.921-3.25 9.921-9.75L628.986 96.775z"  horiz-adv-x="1024" />

    
    <glyph glyph-name="weishezhi" unicode="&#58909;" d="M512.005 896c-282.771239 0-512-229.229761-512-512C0.005 101.233761 229.233761-128 512.005-128c282.760239 0 511.99 229.234761 511.99 512C1023.995 666.771239 794.765239 896 512.005 896zM768.0055 213.332667 426.671833 213.332667c-47.13054 0-85.333167 38.213627-85.333167 85.333167L341.338667 640.0005c0 47.13054 38.203627 85.333167 85.333167 85.333167 47.11954 0 85.333167-38.203627 85.333167-85.333167l0-256.0005 256.0005 0c47.11954 0 85.333167-38.203627 85.333167-85.333167C853.338667 251.546293 815.12504 213.332667 768.0055 213.332667z"  horiz-adv-x="1024" />

    
    <glyph glyph-name="fabu" unicode="&#58935;" d="M789.994 124.846 459.266 225.384 754.418 568.416 373.538 249.938 64.28 342.18 960.288 769.398 789.994 124.846ZM448.826-2.574 448.826 174.806 557.694 143.994 448.826-2.574Z"  horiz-adv-x="1024" />

    
    <glyph glyph-name="zhongzhi" unicode="&#58918;" d="M950.841282 307.171194c3.258207 18.512632-9.072633 36.161594-27.620058 39.418778-18.513656 3.272533-36.162618-9.091052-39.418778-27.604708l-0.332575 0.066515c-30.912034-175.512363-184.104041-309.427328-368.372835-309.459051-206.42235 0.031722-374.389876 167.95013-374.389876 374.406249 0 206.438723 167.95013 374.388852 374.389876 374.388852 115.89966 0 219.368196-53.147454 288.037159-136.142703l-83.825151 0c-18.812461 0-34.035164-15.239076-34.035164-34.018791 0.032746-18.812461 15.222703-34.035164 34.035164-34.050514l128.862903 0 7.2798 0.016373 34.034141-0.016373c18.813484 0 34.037211 15.239076 34.037211 34.035164L923.523099 758.388852c0 18.795065-15.223726 34.035164-34.037211 34.051537-18.811438-0.017396-34.034141-15.256472-34.034141-34.051537l0-92.202958C774.349615 764.022153 652.101363 826.459181 515.096013 826.475554 270.732539 826.459181 72.636832 628.36245 72.636832 384c0-244.38087 198.113103-442.443831 442.459181-442.475554 217.340003 0.031722 397.556505 156.88205 434.881598 363.452779C950.176133 305.741635 950.708252 306.373015 950.841282 307.171194z"  horiz-adv-x="1024" />

    
    <glyph glyph-name="kaiqizhuangtai" unicode="&#58990;" d="M714.24 693.76 309.76 693.76C138.24 693.76 0 555.52 0 384c0-171.52 138.24-309.76 309.76-309.76l407.04 0C885.76 74.24 1024 212.48 1024 384 1024 555.52 885.76 693.76 714.24 693.76L714.24 693.76zM714.24 104.96c-156.16 0-281.6 125.44-281.6 281.6 0 156.16 125.44 281.6 281.6 281.6 156.16 0 281.6-125.44 281.6-281.6C995.84 230.4 870.4 104.96 714.24 104.96L714.24 104.96zM714.24 104.96"  horiz-adv-x="1024" />

    
    <glyph glyph-name="shigongdanweisel" unicode="&#59031;" d="M929.316036-4.680347l-25.810852 0 0 526.971993c0 22.306029-8.694009 43.279712-24.452925 59.010999-15.757892 15.757892-36.732599 24.452925-59.010999 24.452925L625.294834 605.75557 625.294834 744.859721c0 22.306029-8.694009 43.279712-24.452925 59.010999-15.757892 15.757892-36.732599 24.452925-59.010999 24.452925l-333.853647 0c-22.278399 0-43.253106-8.694009-59.010999-24.425296-15.757892-15.730263-24.451902-36.70497-24.451902-59.037605l0-749.541091-29.831422 0c-15.377222 0-27.821649-12.443403-27.821649-27.821649s12.443403-27.821649 27.821649-27.821649l834.634118 0c15.377222 0 27.821649 12.443403 27.821649 27.821649S944.694281-4.680347 929.316036-4.680347zM347.083461 105.000682l-111.284549 0 0 111.284549 111.284549 0L347.083461 105.000682zM347.083461 327.56978l-111.284549 0 0 111.284549 111.284549 0L347.083461 327.56978zM347.083461 550.138878l-111.284549 0 0 111.284549 111.284549 0L347.083461 550.138878zM514.010285 105.000682 402.725736 105.000682l0 111.284549 111.284549 0L514.010285 105.000682zM514.010285 327.56978 402.725736 327.56978l0 111.284549 111.284549 0L514.010285 327.56978zM514.010285 550.138878 402.725736 550.138878l0 111.284549 111.284549 0L514.010285 550.138878zM792.221658 105.000682l-111.284549 0 0 111.284549 111.284549 0L792.221658 105.000682zM792.221658 327.56978l-111.284549 0 0 111.284549 111.284549 0L792.221658 327.56978z"  horiz-adv-x="1024" />

    
    <glyph glyph-name="tianbao" unicode="&#58910;" d="M307.2 171.52v15.36c0 7.68 7.68 15.36 15.36 15.36h217.6l7.68 7.68 117.76 115.2H322.56c-7.68 0-15.36 7.68-15.36 15.36v15.36c0 7.68 7.68 15.36 15.36 15.36h391.68l151.04 148.48V770.56c0 15.36-12.8 28.16-28.16 28.16H399.36l-199.68-2.56c-20.48 2.56-33.28-15.36-33.28-30.72v-755.2c0-15.36 15.36-33.28 30.72-30.72h235.52l48.64 145.92V128c0 5.12 5.12 25.6 5.12 30.72h-166.4c-5.12-2.56-12.8 5.12-12.8 12.8z m0 373.76c0 7.68 7.68 15.36 15.36 15.36h404.48c7.68 0 15.36-7.68 15.36-15.36v-15.36c0-7.68-7.68-15.36-15.36-15.36H322.56c-7.68 0-15.36 7.68-15.36 15.36v15.36z m660.48-181.76L896 432.64c-10.24 10.24-28.16 7.68-40.96-2.56l-38.4-38.4 107.52-104.96 38.4 38.4c12.8 10.24 12.8 28.16 5.12 38.4z m-376.32-192L542.72 128c-2.56 0-5.12-5.12-5.12-10.24v-2.56l-43.52-130.56c-2.56-5.12 0-7.68 2.56-10.24 2.56-2.56 7.68-2.56 10.24-2.56l133.12 40.96h2.56c5.12 0 7.68 5.12 10.24 5.12l256 248.32-107.52 104.96-209.92-199.68z"  horiz-adv-x="1024" />

    
    <glyph glyph-name="men" unicode="&#59150;" d="M822.677 831.392h-584.095c-13.721 0-24.854-11.135-24.854-24.854v-521.591h49.722v496.737h534.386v-14.571l-397.682-62.281v-662.222l399.037-64.151 0.062-24.955c3.344-9.793 12.514-16.89 23.433-16.89 0 0 0 0 0 0 13.727 0 24.854 11.127 24.854 24.854 0 0 0 0 0 0v845.069c0 0 0 0 0 0 0 13.727-11.127 24.854-24.854 24.854-0.002 0-0.004 0-0.005 0zM491.476 310.976c-11.719 0-21.487 14.478-24.011 33.859l0.398 21.748c2.97 18.188 12.354 31.579 23.6 31.579 13.62 0 24.656-19.511 24.656-43.596 0.018-24.071-11.024-43.589-24.644-43.589zM263.442-38.538c0-13.714-11.135-24.854-24.854-24.854s-24.854 11.141-24.854 24.854v323.483h49.579l0.131-323.483z"  horiz-adv-x="1024" />

    
    <glyph glyph-name="cuibao" unicode="&#59701;" d="M512 896c-282.765 0-512-229.229-512-512s229.235-512 512-512c282.771 0 512 229.229 512 512s-229.229 512-512 512z m0-896c-212.077 0-383.994 171.923-383.994 384s171.917 384 383.994 384c212.083 0 384-171.923 384-384s-171.917-384-384-384z m45.254 674.278c-24.992 24.992-65.51 24.992-90.509 0L285.728 493.254c-24.992-24.986-24.992-65.517 0-90.509s65.517-24.992 90.509 0l71.77 71.77v-282.515c0-35.347 28.646-64 63.994-64 35.354 0 64 28.653 64 64V474.509l71.763-71.763c24.998-24.992 65.523-24.992 90.509 0 24.998 24.992 24.998 65.523 0 90.509L557.254 674.278z"  horiz-adv-x="1024" />

    
    <glyph glyph-name="deleye" unicode="&#59702;" d="M395.636 11.641c25.711 0 46.55 20.839 46.55 46.541V616.727c0 25.703-20.839 46.55-46.55 46.55-25.703 0-46.541-20.839-46.541-46.55v-558.545c0-25.703 20.838-46.541 46.541-46.541zM977.461 802.909H581.818V849.459c0 25.703-20.839 46.541-46.541 46.541h-46.55c-25.703 0-46.55-20.839-46.55-46.541v-46.55H46.543c-25.703 0-46.541-20.839-46.541-46.541 0-25.711 20.839-46.55 46.541-46.55h69.82v-744.727c0-51.414 41.677-93.091 93.091-93.091h605.095c51.414 0 93.091 41.677 93.091 93.091V709.818h69.82c25.703 0 46.541 20.839 46.541 46.55 0.001 25.702-20.838 46.541-46.54 46.541zM814.549 11.641c0-25.711-20.847-46.55-46.55-46.55H256.004c-25.711 0-46.55 20.839-46.55 46.55V709.818h605.095v-698.177z m-186.181 0c25.703 0 46.541 20.839 46.541 46.541V616.727c0 25.703-20.839 46.55-46.541 46.55-25.711 0-46.55-20.839-46.55-46.55v-558.545c0-25.703 20.838-46.541 46.55-46.541z"  horiz-adv-x="1024" />

    
    <glyph glyph-name="edit" unicode="&#59703;" d="M1010.231831 789.715623c-18.349892 18.347892-48.093718 18.347892-66.443611 0L478.709945 324.704347c-18.349892-18.347892-18.349892-48.088718 0-66.43661 18.340893-18.337893 48.093718-18.337893 66.443611 0l465.078275 465.020275c18.349892 18.337893 18.349892 48.079718 0 66.427611zM837.94084 290.904545c-25.715849 0-46.555727-20.841878-46.555727-46.543727v-232.728636c0-25.701849-20.839878-46.543727-46.545727-46.543727H139.656932c-25.706849 0-46.545727 20.842878-46.545728 46.543727V756.352818c0 25.701849 20.839878 46.543727 46.545728 46.543728h465.516272c25.715849 0 46.555727 20.841878 46.555727 46.543727s-20.839878 46.552727-46.555727 46.552727H93.111204c-51.422699 0-93.110454-41.684756-93.110454-93.097454v-837.809091c0-51.412699 41.687756-93.087455 93.110454-93.087455h698.273909c51.422699 0 93.101454 41.675756 93.101454 93.087455V244.360818c0 25.700849-20.829878 46.543727-46.545727 46.543727z"  horiz-adv-x="1024" />

    
    <glyph glyph-name="problem" unicode="&#59704;" d="M512-128c-282.273 0-512 229.727-512 512s229.727 512 512 512 512-229.727 512-512-229.728-512-512-512z m0 930.909c-231 0-418.909-187.909-418.909-418.909s187.909-418.909 418.909-418.909 418.909 187.909 418.909 418.909S743 802.909 512 802.909zM528 238.182h-71.182v35.182c0 28.636 5.727 53.273 17.182 73.818 11.455 20.636 31.909 42.364 61.364 65.273 28.909 22.364 49.545 43.273 62 62.818 12.364 19.455 18.636 41.909 18.636 67.273 0 27-9.636 49.273-28.818 66.727-19.273 17.455-45.364 26.182-78.364 26.182-52.091 0-97.909-19.818-137.455-59.364V659.545c45.818 28.636 95.455 43 148.909 43 53.182 0 95.545-14 127-42 31.545-27.909 47.273-64.545 47.273-109.818 0-31.636-7.364-60.364-22.091-86.273s-39.455-53.182-74.091-81.818c-27.818-23.182-46.455-41.636-56-55.273-9.545-13.636-14.364-32.727-14.364-57.273v-31.908z m-36-85.455c14.455 0 26.909-5.091 37.273-15.182 10.364-10.091 15.545-22.364 15.545-36.818 0-14.727-5.182-27.091-15.545-37-10.364-10-22.818-14.909-37.273-14.909-13.909 0-26 4.909-36.364 14.727s-15.545 22.182-15.545 37.182c0 14.727 5.091 27.091 15.364 37 10.181 10 22.363 15 36.545 15z"  horiz-adv-x="1024" />

    
    <glyph glyph-name="daochu" unicode="&#58911;" d="M758.939 24.901H255.31c-55.628 0-100.71 45.082-100.71 100.71V629.24c0 55.603 46.771 112.461 102.4 112.461h281.6v-51.2H257c-27.827 0-51.2-23.373-51.2-51.2l-0.845-513.69c0-27.801 22.554-50.355 50.355-50.355l513.69 0.845c27.802 0 51.2 23.398 51.2 51.2v281.6h51.2v-281.6c0-55.629-56.858-102.4-112.461-102.4z m86.861 486.4c-14.515-0.026-25.626 11.75-25.6 25.6l-0.768 122.317-389.581-371.559c-10.214-9.728-26.777-9.728-36.992 0-10.214 9.754-10.214 25.549 0 35.277L779.086 691.32l-112.486-0.819c-14.515-0.026-25.626 11.75-25.6 25.6 0.026 13.85 11.085 25.574 25.6 25.6h178.637c14.515 0.026 26.189-11.11 26.163-24.96v-179.84c-0.026-13.85-11.085-25.574-25.6-25.6z"  horiz-adv-x="1024" />

    
    <glyph glyph-name="mobile" unicode="&#59705;" d="M827.814-128H196.18c-45.504 0-82.384 37.193-82.384 83.027V812.973c0 45.828 36.88 83.027 82.384 83.027h631.633c45.51 0 82.389-37.198 82.389-83.027v-857.947c0.001-45.833-36.879-83.026-82.388-83.026z m27.47 913.298c0 30.554-24.609 55.351-54.93 55.351H223.645c-30.321 0-54.924-24.797-54.924-55.351v-802.596c0-30.554 24.604-55.351 54.924-55.351h576.709c30.321 0 54.93 24.797 54.93 55.351V785.298z m-247.168-774.92H415.883c-15.189 0-27.465 12.373-27.465 27.676 0 15.308 12.276 27.676 27.465 27.676h192.233c15.189 0 27.465-12.367 27.465-27.676 0-15.304-12.276-27.676-27.465-27.676z"  horiz-adv-x="1024" />

    
    <glyph glyph-name="Verificationcode" unicode="&#59706;" d="M914.316607 770.665122L543.17197 891.149005c-20.24098 6.467994-42.199959 6.467994-62.440939 0L109.580393 770.665122c-31.521969-10.20599-52.672949-39.417962-52.672949-72.674929v-264.513741c0-152.824851 73.220928-298.071709 195.996809-388.734621l213.922791-157.881846c13.191987-9.80799 28.802972-14.858985 45.117956-14.858985 16.320984 0 31.936969 5.153995 45.123956 14.858985l214.030791 157.881846c122.77088 90.560912 195.991809 235.90977 195.991809 388.734621V697.990193c-0.097 33.256968-21.247979 62.468939-52.774949 72.674929z m-12.185988-338.906669c0-131.900871-63.253938-257.339749-169.105835-335.470672l-206.469798-152.322851c-8.561992-6.262994-20.64998-6.365994-29.308972 0L290.872216 96.288781c-105.954897 78.129924-169.105835 203.568801-169.105835 335.470672V686.874204c0 10.71799 6.848993 20.21798 17.026983 23.448977L496.842015 826.563068a48.284953 48.284953 0 0 0 30.21397 0l357.952651-116.239887c10.17199-3.230997 17.020983-12.731988 17.020983-23.448977l0.101-255.115751z m-162.659841 176.581828H284.432222c-13.999986 0-25.280975-11.320989-25.280975-25.371975s11.280989-37.500963 25.280975-37.500964h196.190809v-366.394642c0-14.050986 17.327983-25.371975 31.322969-25.371975 14.005986 0 32.329968 11.320989 32.329968 25.371975V545.467342h195.19481c13.994986 0 25.280975 23.448977 25.280975 37.500964 0 14.050986-11.286989 25.371975-25.280975 25.371975z"  horiz-adv-x="1024" />

    
    <glyph glyph-name="lock" unicode="&#59707;" d="M854.730331 449.820871l-563.978899 0.983999c-0.228 76.521851-20.69096 195.119619 44.253914 267.112478 39.475923 43.889914 106.030793 89.037826 177.022654 89.037826 104.886795 0 183.308642-79.582845 221.288568-178.069652 11.064978-28.404945 20.798959-43.713915 44.265913-44.526913 58.823885-1.791997 55.250892 60.632882 44.248914 89.042826C766.972502 815.591157 664.047703 895.999 512.028 895.999c-103.316798 0-160.251687-21.327958-221.276568-89.042826-93.349818-103.464798-88.747827-270.765471-88.508827-356.150304l-32.915936-0.977999c-30.75394 0-55.609891-24.752952-55.609891-55.188892v-467.341087c0-30.60694 24.900951-55.296892 55.609891-55.296892h685.352662c30.71494 0 55.603891 24.695952 55.603891 55.296892V394.637979c0.056 30.48694-24.832951 55.182892-55.552891 55.182892z m-31.545939-443.896133c0-12.316976-4.271992-22.874955-12.993974-31.533938-8.652983-8.714983-19.114963-13.072974-31.339939-13.072974H246.747518c-12.236976 0-22.687956 4.294992-31.288939 13.072974-8.658983 8.709983-13.044975 19.216962-13.044974 31.533938V318.162129c0 24.558952 19.848961 44.543913 44.333913 44.543913h532.086961c24.479952 0 44.350913-19.984961 44.350913-44.543913v-312.237391h-0.001z"  horiz-adv-x="1024" />

    
    <glyph glyph-name="user" unicode="&#59708;" d="M681.386 326.394c77.081 55.472 127.79 149.333 127.79 256.006 0 172.794-133.877 313.6-298.189 313.6S214.824 755.194 214.824 584.533c0-106.667 50.715-200.533 127.796-256-174.454-72.539-296.164-249.6-296.164-456.533h83.174c0 204.8 148.082 375.467 336.729 398.928 2.025 0 52.745 4.267 95.342 0h4.056c184.597-27.728 326.592-196.255 326.592-398.928h85.193c-2.024 204.805-123.733 383.994-296.156 454.394z m-170.399 23.473c-123.74 0-223.132 104.533-223.132 234.667s99.392 234.66 223.132 234.66 223.138-104.528 223.138-234.661-99.398-234.666-223.138-234.666z"  horiz-adv-x="1024" />

    
    <glyph glyph-name="arrow" unicode="&#59709;" d="M1024.002 384L512.007-127.995 0.012 384 512.007 895.995z"  horiz-adv-x="1024" />

    
    <glyph glyph-name="SVGmoban" unicode="&#59710;" d="M1007.221 762.353c-5.205-4.178-6.536-8.263-6.092-14.682 1.097-16.036-2.871-30.391-16.853-40.101-6.956-4.832-14.845-7.026-23.155-8.1a96.696 96.696 0 0 0-37.627 2.031c-20.611 5.509-39.121 21.638-36.973 50.068l-0.584 0.07-0.537-0.21c-6.489-16.339-21.895-24.462-41.525-21.918a102.503 102.503 0 0 0-26.983 6.792c-3.641 1.541-6.256 1.004-9.453-1.494-12.885-10.13-26.983-17.693-43.462-20.074a45.005 45.005 0 0 0-24.275 3.174c-1.797 0.747-3.174 1.844-4.225-1.05-5.485-15.149-17.063-24.392-30.741-31.161-4.855-2.404-6.442-5.089-5.952-10.48 0.7-7.749-0.233-15.429-4.598-22.315a15.553 15.553 0 0 0-5.672-5.602c-6.746-3.688-8.776-2.708-9.827 4.785-3.385 24.602-4.435 49.181 1.447 73.573 2.638 10.924 7.096 20.984 15.779 28.524 2.054 1.774 2.638 3.875 3.081 6.466 2.824 16.736 8.403 32.352 19.63 45.353 16.993 19.63 39.191 26.353 64.073 25.162 6.863-0.35 10.854 0.957 14.915 7.143C816.378 866.831 847.12 878.315 879.938 869.795a18.066 18.066 0 0 1 13.562 1.307c15.312 7.633 31.395 12.838 48.598 13.772 33.285 1.797 55.74-12.465 68.882-43.392 5.392-12.721 8.333-26.259 11.811-39.494 4.247-16.106-3.106-29.598-15.57-39.635zM736.316 619.571c-0.21-94.464-0.117-188.952-0.257-283.416 0-4.925 1.12-7.609 5.905-9.944 34.126-16.433 68.018-33.402 102.097-49.951 4.202-2.054 5.415-4.388 5.415-8.987-0.14-125.882-0.14-251.788 0-377.67 0-5.065-0.957-6.629-6.326-6.629-278.888 0.14-557.798 0.14-836.686 0.023-5.159 0-6.442 1.33-6.442 6.536 0.14 243.408 0.14 486.816-0.023 730.224 0 5.579 1.401 6.886 6.816 6.862 40.008-0.233 79.992-0.14 119.977-0.047a23.34 23.34 0 0 0 10.691-2.568c147.1-72.476 294.246-144.906 441.37-217.335 1.821-0.91 3.688-1.727 6.512-3.034v7.913c0 94.067 0.07 188.111-0.163 282.155 0 6.279 1.751 7.586 7.586 7.399 14.495-0.443 29.014-0.303 43.509-0.047 4.271 0.093 5.625-1.027 5.579-5.509-0.233-20.728 0.093-41.478-0.233-62.206-0.093-5.369 1.004-7.073 6.699-7.003 26.936 0.35 53.873 0.023 80.809 0.303 5.531 0.074 7.165-1.186 7.165-7.069z m-566.015-370.9c0 5.392-1.611 6.442-6.606 6.396-20.914-0.303-41.828-0.303-62.766 0-5.018 0.07-6.559-1.004-6.536-6.396 0.233-47.547 0.14-95.071 0.14-142.618s0.093-95.094-0.117-142.618c-0.023-5.088 1.424-6.186 6.209-6.139 21.124 0.257 42.249 0.257 63.373 0.023 4.692-0.047 6.302 0.91 6.302 6.116-0.185 95.07-0.185 190.141 0.001 285.236z m107.209 6.372c-21.124-0.233-42.249-0.28-63.373 0.023-5.065 0.07-6.559-1.074-6.536-6.419 0.233-47.337 0.14-94.674 0.14-142.011 0-47.757 0.047-95.491-0.093-143.248-0.023-4.412 0.63-6.186 5.625-6.092 21.544 0.303 43.089 0.233 64.633 0.023 4.272-0.047 5.579 1.027 5.579 5.509-0.14 95.515-0.14 191.006 0.023 286.497 0.001 4.994-1.586 5.765-5.998 5.718z m119.16-5.135c0.023 4.272-1.33 5.135-5.252 5.112-21.334-0.187-42.669-0.35-64.003 0.093-5.882 0.117-6.606-1.891-6.582-7.073 0.187-47.314 0.117-94.651 0.117-141.988 0-47.314 0.117-94.651-0.163-141.988-0.023-5.765 1.611-6.862 6.909-6.769 21.124 0.303 42.272 0.233 63.396 0.023 4.225-0.047 5.602 0.91 5.602 5.462-0.141 95.725-0.141 191.426-0.024 287.128z"  horiz-adv-x="1024" />

    
    </font>
</defs>
</svg>
