<?xml version="1.0" standalone="no"?>
<!DOCTYPE svg PUBLIC "-//W3C//DTD SVG 1.1//EN" "http://www.w3.org/Graphics/SVG/1.1/DTD/svg11.dtd" >
<!--
2013-9-30: Created.
-->
<svg>
<metadata>
Created by iconfont
</metadata>
<defs>

<font id="iconfont" horiz-adv-x="1024" >
  <font-face
    font-family="iconfont"
    font-weight="500"
    font-stretch="normal"
    units-per-em="1024"
    ascent="896"
    descent="-128"
  />
    <missing-glyph />
    
    <glyph glyph-name="zhibanrenyuan" unicode="&#59189;" d="M956.2624-60.26239999999996a53.7088 53.7088 0 0 0-75.9808 0l-182.7328 160.1536a408.4224 408.4224 0 1 0 78.5408 72.192l180.1728-156.3648a53.7088 53.7088 0 0 0 0-75.9808z m-136.2432 494.6432a358.4 358.4 0 1 1-358.4-358.4 358.4 358.4 0 0 1 358.4 358.4z m-358.4-256a256 256 0 1 0 256 256 256 256 0 0 0-256-256z"  horiz-adv-x="1024" />

    
    <glyph glyph-name="baogao" unicode="&#59190;" d="M819.2 896H204.8C148.48 896 102.4 849.92 102.4 793.6v-819.2c0-56.32 46.08-102.4 102.4-102.4h614.4c56.32 0 102.4 46.08 102.4 102.4V793.6c0 56.32-46.08 102.4-102.4 102.4zM256 496.64h337.92v-87.04H256V496.64z m0-189.44h337.92v-87.04H256v87.04z m512-276.48H256v87.04h512v-87.04z m0 568.32H256V691.2h512v-92.16z"  horiz-adv-x="1024" />

    
    <glyph glyph-name="daichusuo" unicode="&#59191;" d="M870.4 844.8H153.6c-56.32 0-102.4-46.08-102.4-102.4v-716.8c0-56.32 46.08-102.4 102.4-102.4h716.8c56.32 0 102.4 46.08 102.4 102.4V742.4c0 56.32-46.08 102.4-102.4 102.4zM332.8 732.16l51.2-30.72C322.56 614.4 261.12 542.72 194.56 481.28c-10.24 15.36-20.48 30.72-30.72 51.2 66.56 51.2 122.88 117.76 168.96 199.68z m-15.36-696.32h-51.2v307.2c-25.6-30.72-51.2-61.44-76.8-87.04-5.12 20.48-15.36 35.84-25.6 56.32 61.44 56.32 117.76 133.12 168.96 230.4l51.2-25.6c-20.48-35.84-40.96-71.68-66.56-102.4v-378.88z m61.44 445.44h209.92v102.4H409.6v46.08h179.2V727.04h56.32v-97.28h179.2v-46.08h-179.2v-102.4h209.92v-51.2H378.88v51.2z m51.2-240.64l40.96 30.72c35.84-35.84 61.44-71.68 87.04-102.4l-46.08-35.84c-20.48 35.84-51.2 71.68-81.92 107.52z m430.08 56.32h-107.52v-163.84c0-56.32-30.72-81.92-87.04-81.92h-107.52c-5.12 15.36-5.12 35.84-10.24 56.32 40.96-5.12 76.8-5.12 107.52-5.12 30.72 0 40.96 15.36 40.96 46.08v143.36H384v51.2h312.32V409.6h56.32v-66.56h107.52v-46.08z"  horiz-adv-x="1024" />

    
    <glyph glyph-name="chulishixiang" unicode="&#59192;" d="M814.08 435.2c0 143.36-102.4 261.12-235.52 291.84V788.48c0 35.84-30.72 61.44-61.44 61.44-35.84 0-61.44-30.72-61.44-61.44v-66.56C317.44 701.44 215.04 578.56 215.04 435.2v-245.76L153.6 71.68h716.8l-61.44 117.76V435.2zM317.44-10.24h373.76v-71.68H317.44zM296.96 747.52l-15.36 76.8C133.12 803.84 20.48 645.12 15.36 486.4h92.16c5.12 107.52 76.8 235.52 189.44 261.12zM757.76 824.32l-25.6-87.04c102.4-35.84 189.44-143.36 184.32-256l76.8-10.24c20.48 148.48-81.92 302.08-235.52 353.28z"  horiz-adv-x="1024" />

    
    <glyph glyph-name="chusuoguanli-zhengchangchusuo" unicode="&#59193;" d="M1006.933333 782.222222V884.622222H17.066667V782.222222h51.2v-790.755555H17.066667v-96.711111h989.866666v96.711111h-51.2V782.222222h51.2zM563.2 782.222222h96.711111v-199.111111H563.2V782.222222z m96.711111-591.644444v113.777778c-28.444444 17.066667-51.2 51.2-51.2 85.333333 0 56.888889 45.511111 96.711111 96.711111 96.711111 56.888889 0 96.711111-45.511111 96.711111-96.711111 0-34.133333-17.066667-68.266667-51.2-85.333333v-113.777778h-91.022222zM164.977778 782.222222h96.711111v-790.755555H164.977778V782.222222z m295.822222-790.755555H364.088889V782.222222h96.711111v-790.755555z m102.4 96.711111h96.711111v-96.711111H563.2v96.711111z m295.822222-96.711111h-96.711111v96.711111h96.711111v-96.711111z m0 591.644444h-96.711111V782.222222h96.711111v-199.111111z"  horiz-adv-x="1024" />

    
    <glyph glyph-name="chusuoguanli-linshichusuo" unicode="&#59194;" d="M284.444444 759.466667L125.155556 600.177778c-22.755556-22.755556-56.888889-22.755556-79.644445 0-22.755556 22.755556-22.755556 56.888889 0 79.644444L204.8 839.111111C227.555556 861.866667 261.688889 861.866667 284.444444 839.111111c22.755556-22.755556 22.755556-56.888889 0-79.644444zM898.844444 600.177778L739.555556 759.466667c-22.755556 22.755556-22.755556 56.888889 0 79.644444 22.755556 22.755556 56.888889 22.755556 79.644444 0l159.288889-159.288889c22.755556-22.755556 22.755556-56.888889 0-79.644444-17.066667-22.755556-56.888889-22.755556-79.644445 0zM512 708.266667c-221.866667 0-398.222222-176.355556-398.222222-398.222223s176.355556-398.222222 398.222222-398.222222 398.222222 176.355556 398.222222 398.222222-176.355556 398.222222-398.222222 398.222223z m0-682.666667c-159.288889 0-284.444444 130.844444-284.444444 284.444444 0 159.288889 130.844444 284.444444 284.444444 284.444445s284.444444-130.844444 284.444444-284.444445c0-159.288889-125.155556-284.444444-284.444444-284.444444zM688.355556 366.933333l-193.422223-164.977777c-17.066667-17.066667-45.511111-11.377778-62.577777 5.688888-17.066667 17.066667-11.377778 45.511111 5.688888 62.577778l193.422223 164.977778c22.755556 11.377778 51.2 5.688889 62.577777-11.377778 17.066667-17.066667 17.066667-45.511111-5.688888-56.888889zM438.044444 201.955556l-91.022222 102.4c-17.066667 17.066667-17.066667 45.511111 5.688889 62.577777 17.066667 17.066667 45.511111 17.066667 62.577778-5.688889l91.022222-102.4c11.377778-17.066667 5.688889-45.511111-11.377778-56.888888-17.066667-17.066667-45.511111-17.066667-56.888889 0z"  horiz-adv-x="1024" />

    
    <glyph glyph-name="daohang-tuichu" unicode="&#59195;" d="M921.6 332.8v-51.2h-51.2v-51.2h-51.2v-51.2h-51.2v153.6H307.2V435.2h460.8V588.8h51.2v-51.2h51.2v-51.2h51.2v-51.2h51.2v-102.4h-51.2zM153.6 691.2v-614.4a51.2 51.2 0 0 1 51.2-51.2h358.4v-102.4H153.6a102.4 102.4 0 0 0-102.4 102.4V742.4a102.4 102.4 0 0 0 102.4 102.4h409.6v-102.4H204.8a51.2 51.2 0 0 1-51.2-51.2z"  horiz-adv-x="1024" />

    
    <glyph glyph-name="jiekoutiaoyong-biaoge" unicode="&#59198;" d="M56.888889 839.111111h910.222222v-170.666667H56.888889zM56.888889 497.777778h910.222222v-56.888889H56.888889zM56.888889 42.666667h910.222222v-113.777778H56.888889zM56.888889 270.222222h910.222222v-56.888889H56.888889zM853.333333 839.111111h113.777778v-910.222222h-113.777778zM56.888889 839.111111h113.777778v-910.222222H56.888889zM352.711111 839.111111h56.888889v-910.222222h-56.888889zM614.4 839.111111h56.888889v-910.222222h-56.888889z"  horiz-adv-x="1024" />

    
    <glyph glyph-name="guanbi" unicode="&#59199;" d="M925.769143 73.654857l-103.424-103.424L512 280.576l-310.345143-310.345143-103.424 103.424L408.576 384 98.230857 694.345143l103.424 103.424L512 487.424l310.345143 310.345143 103.424-103.424L615.424 384z"  horiz-adv-x="1024" />

    
    <glyph glyph-name="jiekoutiaoyong-tongjitu" unicode="&#59201;" d="M494.933333 492.088889v-113.777778h506.311111C1001.244444 645.688889 785.066667 867.555556 512 867.555556h-17.066667v-375.466667z m113.777778 244.622222c119.466667-34.133333 216.177778-125.155556 256-244.622222h-256V736.711111zM824.888889 287.288889c-34.133333-159.288889-170.666667-278.755556-341.333333-278.755556-193.422222 0-347.022222 153.6-347.022223 347.022223 0 159.288889 113.777778 295.822222 261.688889 335.644444V810.666667c-216.177778-39.822222-375.466667-227.555556-375.466666-455.111111 0-256 210.488889-466.488889 466.488888-466.488889 233.244444 0 426.666667 170.666667 460.8 398.222222h-125.155555z"  horiz-adv-x="1024" />

    
    <glyph glyph-name="qingchu-denglu" unicode="&#59202;" d="M512-128a512 512 0 1 0 512 512 512 512 0 0 0-512-512z m217.2416 656.8448l-72.448 72.3968L512 456.448 367.1552 601.2416 294.7584 528.8448 439.6032 384l-144.8448-144.7936 72.3968-72.3968L512 311.6032l144.7936-144.7936 72.448 72.3968L584.3968 384z"  horiz-adv-x="1024" />

    
    <glyph glyph-name="shangchuanwenjian-pdf" unicode="&#59203;" d="M906.24 716.8c-7.68 5.12-12.8 12.8-23.04 20.48-23.04 20.48-46.08 40.96-66.56 61.44l-5.12 5.12c-28.16 25.6-53.76 48.64-71.68 64-10.24 7.68-17.92 15.36-25.6 20.48-5.12 2.56-7.68 5.12-10.24 7.68H691.2c-15.36 0-25.6-12.8-25.6-25.6v-230.4h230.4l-25.6 25.6v-768l25.6 25.6H230.4c-43.52 0-76.8 33.28-76.8 76.8V870.4L128 844.8h460.8c15.36 0 25.6 10.24 25.6 25.6s-10.24 25.6-25.6 25.6H102.4v-896c0-71.68 56.32-128 128-128h691.2V691.2h-230.4l25.6-25.6V870.4c0-12.8-10.24-25.6-25.6-25.6-5.12 0-7.68 0-10.24 2.56l2.56-2.56c5.12-2.56 12.8-10.24 20.48-17.92 17.92-15.36 40.96-35.84 69.12-61.44l5.12-5.12c20.48-20.48 43.52-40.96 66.56-61.44 7.68-7.68 15.36-12.8 23.04-20.48 5.12-2.56 7.68-5.12 7.68-7.68 10.24-10.24 25.6-10.24 35.84 0s10.24 25.6 0 35.84c0 5.12-2.56 7.68-5.12 10.24zM102.4 435.2H0v-435.2h1024V435.2H102.4z m104.96-250.88V76.8h-51.2V368.64h112.64c33.28 0 58.88-7.68 76.8-25.6s28.16-38.4 28.16-66.56-10.24-51.2-28.16-66.56-46.08-23.04-79.36-23.04c2.56-2.56-58.88-2.56-58.88-2.56z m0 40.96h61.44c17.92 0 30.72 5.12 40.96 12.8 10.24 7.68 15.36 20.48 15.36 35.84 0 15.36-5.12 28.16-15.36 38.4-10.24 10.24-23.04 15.36-38.4 15.36H207.36v-102.4z m212.48-148.48V368.64h87.04c25.6 0 48.64-5.12 69.12-17.92 20.48-10.24 35.84-28.16 46.08-48.64 10.24-20.48 15.36-46.08 15.36-71.68v-15.36c0-28.16-5.12-51.2-15.36-71.68s-25.6-35.84-46.08-48.64c-20.48-10.24-43.52-17.92-69.12-17.92h-87.04z m51.2 250.88v-209.92h33.28c25.6 0 46.08 7.68 61.44 25.6 15.36 15.36 20.48 40.96 20.48 71.68V230.4c0 30.72-7.68 56.32-20.48 71.68-12.8 17.92-33.28 25.6-58.88 25.6h-35.84z m384-128h-117.76V76.8h-51.2V368.64H870.4v-40.96h-135.68v-87.04h117.76v-40.96z"  horiz-adv-x="1024" />

    
    <glyph glyph-name="shangchuanwenjian-doc" unicode="&#59204;" d="M906.24 716.8c-7.68 5.12-12.8 12.8-23.04 20.48-23.04 20.48-46.08 40.96-66.56 61.44l-5.12 5.12c-28.16 25.6-53.76 48.64-71.68 64-10.24 7.68-17.92 15.36-25.6 20.48-5.12 2.56-7.68 5.12-10.24 7.68H691.2c-15.36 0-25.6-12.8-25.6-25.6v-230.4h230.4l-25.6 25.6v-768l25.6 25.6H230.4c-43.52 0-76.8 33.28-76.8 76.8V870.4L128 844.8h460.8c15.36 0 25.6 10.24 25.6 25.6s-10.24 25.6-25.6 25.6H102.4v-896c0-71.68 56.32-128 128-128h691.2V691.2h-230.4l25.6-25.6V870.4c0-12.8-10.24-25.6-25.6-25.6-5.12 0-7.68 0-10.24 2.56l2.56-2.56c5.12-2.56 12.8-10.24 20.48-17.92 17.92-15.36 40.96-35.84 69.12-61.44l5.12-5.12c20.48-20.48 43.52-40.96 66.56-61.44 7.68-7.68 15.36-12.8 23.04-20.48 5.12-2.56 7.68-5.12 7.68-7.68 10.24-10.24 25.6-10.24 35.84 0s10.24 25.6 0 35.84c0 5.12-2.56 7.68-5.12 10.24zM527.36 317.44c-17.92 0-33.28-7.68-43.52-23.04-10.24-15.36-17.92-40.96-17.92-71.68 0-30.72 5.12-56.32 17.92-71.68 10.24-15.36 25.6-25.6 43.52-25.6s33.28 7.68 43.52 23.04c10.24 15.36 17.92 40.96 17.92 71.68 0 30.72-5.12 56.32-15.36 71.68-12.8 17.92-28.16 25.6-46.08 25.6zM302.08 302.08c-5.12 7.68-15.36 10.24-23.04 12.8-7.68 2.56-20.48 2.56-43.52 2.56h-25.6V128h38.4c15.36 0 25.6 0 30.72 2.56 7.68 2.56 15.36 5.12 20.48 12.8 5.12 5.12 10.24 15.36 12.8 28.16 2.56 12.8 5.12 30.72 5.12 53.76 0 23.04-2.56 38.4-5.12 51.2 0 10.24-5.12 20.48-10.24 25.6zM153.6 435.2H0v-435.2h1024V435.2H153.6z m215.04-276.48c-7.68-20.48-15.36-38.4-28.16-51.2-10.24-10.24-20.48-17.92-35.84-23.04-12.8-5.12-28.16-5.12-46.08-5.12H158.72V368.64h94.72c20.48 0 38.4-2.56 48.64-5.12 15.36-5.12 28.16-12.8 38.4-25.6 10.24-12.8 17.92-28.16 25.6-46.08 5.12-17.92 7.68-40.96 7.68-69.12 2.56-25.6 0-46.08-5.12-64z m235.52-40.96c-20.48-25.6-46.08-38.4-76.8-38.4-33.28 0-58.88 12.8-76.8 38.4-20.48 25.6-28.16 58.88-28.16 104.96 0 28.16 2.56 51.2 10.24 71.68 5.12 15.36 12.8 28.16 20.48 38.4s17.92 20.48 28.16 25.6c12.8 7.68 28.16 10.24 46.08 10.24 33.28 0 58.88-12.8 76.8-38.4s28.16-61.44 28.16-104.96c0-48.64-7.68-84.48-28.16-107.52z m235.52-20.48c-15.36-15.36-33.28-23.04-56.32-23.04-28.16 0-51.2 12.8-69.12 38.4-17.92 25.6-28.16 61.44-28.16 104.96 0 46.08 10.24 81.92 28.16 107.52 17.92 25.6 43.52 38.4 71.68 38.4 25.6 0 46.08-10.24 64-30.72 10.24-12.8 17.92-28.16 23.04-51.2l-43.52-12.8c-2.56 15.36-7.68 25.6-15.36 33.28-7.68 7.68-17.92 12.8-28.16 12.8-15.36 0-28.16-7.68-38.4-23.04-10.24-15.36-15.36-38.4-15.36-71.68 0-35.84 5.12-61.44 15.36-76.8 10.24-15.36 23.04-23.04 38.4-23.04 10.24 0 20.48 5.12 30.72 15.36s15.36 25.6 17.92 46.08l40.96-17.92c-10.24-28.16-20.48-51.2-35.84-66.56z"  horiz-adv-x="1024" />

    
    <glyph glyph-name="shouye-jiaoseguanli" unicode="&#59205;" d="M962.952863-128l-46.150467 132.901662h-165.323825L708.322042-128H583.379876l151.887613 438.721529h125.453327L1022.320474-128h-59.367611z m-103.619482 301.657563q-18.912929 55.424374-28.04079 90.986522a604.994652 604.994652 0 0 0-21.322684-83.757256l-31.837981-94.418598 110.483634 1.095343zM511.160237 240.765599V237.114455a365.114455 365.114455 0 0 1-365.114455-365.114455H0a508.896527 508.896527 0 0 0 262.882407 444.271269A328.603009 328.603009 0 1 0 511.160237 240.765599zM474.648791 748.274692A182.557227 182.557227 0 1 1 657.206019 565.717464 182.557227 182.557227 0 0 1 474.648791 748.274692z"  horiz-adv-x="1024" />

    
    <glyph glyph-name="shouye-jiekoutongji" unicode="&#59206;" d="M804.571429 550.838857a73.142857 73.142857 0 0 0 73.142857-73.142857V164.571429a73.142857 73.142857 0 0 0-146.285715 0V477.696a73.142857 73.142857 0 0 0 73.142858 73.142857zM512 896a73.142857 73.142857 0 0 0 73.142857-73.142857v-658.285714a73.142857 73.142857 0 0 0-146.285714 0V822.857143a73.142857 73.142857 0 0 0 73.142857 73.142857zM219.428571 722.285714a73.142857 73.142857 0 0 0 73.142858-73.142857V164.571429a73.142857 73.142857 0 0 0-146.285715 0V649.142857a73.142857 73.142857 0 0 0 73.142857 73.142857zM73.142857 18.285714h877.714286a73.142857 73.142857 0 0 0 0-146.285714H73.142857a73.142857 73.142857 0 0 0 0 146.285714z"  horiz-adv-x="1024" />

    
    <glyph glyph-name="shouye-tiaoyongjiekou" unicode="&#59207;" d="M950.857143 310.857143h-73.142857v-73.142857H585.142857V310.857143H73.142857a73.142857 73.142857 0 0 0 0 146.285714h512V530.285714h292.571429v-73.142857h73.142857a73.142857 73.142857 0 0 0 0-146.285714z m0 365.714286H512v-73.142858H219.428571V676.571429H73.142857a73.142857 73.142857 0 0 0 0 146.285714h146.285714V896h292.571429v-73.142857h438.857143a73.142857 73.142857 0 0 0 0-146.285714zM73.142857 91.428571h146.285714v73.142858h292.571429v-73.142858h438.857143a73.142857 73.142857 0 0 0 0-146.285714H512v-73.142857H219.428571v73.142857H73.142857a73.142857 73.142857 0 0 0 0 146.285714z"  horiz-adv-x="1024" />

    
    <glyph glyph-name="shouye-zhanghaoguanli" unicode="&#59208;" d="M657.206019-128v73.022891h365.114455v-73.022891H657.206019z m0 219.068673h365.114455v-73.022891H657.206019v73.022891z m0 146.045782h365.114455v-73.022891H657.206019V237.114455z m-146.045782 3.651144V237.114455a365.114455 365.114455 0 0 1-365.114455-365.114455H0a508.896527 508.896527 0 0 0 262.882407 444.271269A328.603009 328.603009 0 1 0 511.160237 240.765599zM474.648791 748.274692A182.557227 182.557227 0 1 1 657.206019 565.717464 182.557227 182.557227 0 0 1 474.648791 748.274692z"  horiz-adv-x="1024" />

    
    <glyph glyph-name="shouye-xiugaimima" unicode="&#59209;" d="M877.714286-128H146.285714a73.142857 73.142857 0 0 0-73.142857 73.142857V530.285714a73.142857 73.142857 0 0 0 73.142857 73.142857h73.142857V822.857143a73.142857 73.142857 0 0 0 73.142858 73.142857h438.857142a73.142857 73.142857 0 0 0 73.142858-73.142857v-219.428572h73.142857a73.142857 73.142857 0 0 0 73.142857-73.142857v-585.142857a73.142857 73.142857 0 0 0-73.142857-73.142857zM658.285714 713.142857a36.571429 36.571429 0 0 1-36.571428 36.571429h-219.428572a36.571429 36.571429 0 0 1-36.571428-36.571429V603.428571h292.571428V713.142857z m146.285715-299.885714a46.518857 46.518857 0 0 1-48.786286 43.885714H268.214857A46.518857 46.518857 0 0 1 219.428571 413.257143v-351.085714a46.518857 46.518857 0 0 1 48.786286-43.885715h487.643429a46.518857 46.518857 0 0 1 48.713143 43.885715V413.257143zM512 91.428571a73.142857 73.142857 0 0 0-73.142857 73.142858V310.857143a73.142857 73.142857 0 0 0 146.285714 0v-146.285714a73.142857 73.142857 0 0 0-73.142857-73.142858z"  horiz-adv-x="1024" />

    
    <glyph glyph-name="tishi-danchuang" unicode="&#59210;" d="M508.586667 896C795.306667 896 1024 667.306667 1024 380.586667 1024 100.693333 791.893333-128 508.586667-128 232.106667-128 0 100.693333 0 380.586667 0 663.893333 232.106667 896 508.586667 896z m-6.826667-238.933333c-27.306667 0-40.96-20.48-40.96-40.96l17.066667-317.44c23.893333-27.306667 44.373333-27.306667 68.266666 0l17.066667 317.44c0 23.893333-17.066667 40.96-44.373333 40.96h-17.066667z m10.24-552.96c30.72 0 51.2 20.48 51.2 51.2s-20.48 51.2-51.2 51.2-51.2-20.48-51.2-51.2c0-27.306667 20.48-51.2 51.2-51.2z"  horiz-adv-x="1024" />

    
    <glyph glyph-name="tianjiafujian" unicode="&#59211;" d="M938.074896 282.45215L625.619972-30.002774c-130.662968-130.662968-335.178918-130.662968-465.841886 0-130.662968 130.662968-130.662968 335.178918 0 465.841886l391.988904 391.988905c90.895978 90.895978 238.601942 90.895978 329.49792 0s90.895978-238.601942 0-329.49792l-363.583911-363.583911c-56.809986-56.809986-147.705964-56.809986-204.51595 0s-56.809986 147.705964 0 204.51595L625.619972 640.355062l73.852982-73.852982L398.380028 265.409154c-17.042996-17.042996-17.042996-45.447989 0-62.490985 17.042996-17.042996 45.447989-17.042996 62.490984 0l363.583912 363.583911c51.128988 51.128988 51.128988 136.343967 0 187.472955s-136.343967 51.128988-187.472955 0L233.631068 361.98613c-90.895978-90.895978-90.895978-232.920943 0-318.135922s232.920943-90.895978 318.135922 0l312.454924 312.454924c5.680999 0 73.852982-73.852982 73.852982-73.852982z"  horiz-adv-x="1024" />

    
    <glyph glyph-name="wancheng-danchuang" unicode="&#59212;" d="M512-128C228.693333-128 0 100.693333 0 384S228.693333 896 512 896s512-228.693333 512-512-228.693333-512-512-512z m300.373333 675.84c-13.653333 13.653333-34.133333 13.653333-47.786666 0L443.733333 226.986667l-184.32 184.32c-13.653333 13.653333-34.133333 13.653333-44.373333 0-13.653333-13.653333-13.653333-34.133333 0-44.373334l197.973333-197.973333c0-3.413333 3.413333-6.826667 6.826667-10.24 13.653333-13.653333 34.133333-13.653333 47.786667 0l344.746666 344.746667c13.653333 10.24 13.653333 30.72 0 44.373333z"  horiz-adv-x="1024" />

    
    <glyph glyph-name="yichusuo" unicode="&#59213;" d="M870.4 844.8H153.6c-56.32 0-102.4-46.08-102.4-102.4v-716.8c0-56.32 46.08-102.4 102.4-102.4h716.8c56.32 0 102.4 46.08 102.4 102.4V742.4c0 56.32-46.08 102.4-102.4 102.4z m-56.32-686.08c-15.36-51.2-51.2-76.8-117.76-76.8H322.56c-71.68 0-107.52 35.84-107.52 112.64v358.4h61.44v-97.28h419.84V634.88H189.44V691.2h563.2v-327.68h-56.32v40.96H276.48v-204.8c0-40.96 20.48-66.56 61.44-66.56h343.04c40.96 0 66.56 15.36 71.68 40.96 10.24 30.72 15.36 66.56 20.48 112.64 20.48-10.24 35.84-15.36 61.44-20.48-5.12-40.96-15.36-81.92-20.48-107.52z"  horiz-adv-x="1024" />

    
    <glyph glyph-name="zhankai" unicode="&#59214;" d="M817.973653 384l-613.173653-512V896z"  horiz-adv-x="1024" />

    
    <glyph glyph-name="zhibanrenyuan1" unicode="&#59215;" d="M956.2624-60.26239999999996a53.7088 53.7088 0 0 0-75.9808 0l-182.7328 160.1536a408.4224 408.4224 0 1 0 78.5408 72.192l180.1728-156.3648a53.7088 53.7088 0 0 0 0-75.9808z m-136.2432 494.6432a358.4 358.4 0 1 1-358.4-358.4 358.4 358.4 0 0 1 358.4 358.4z m-358.4-256a256 256 0 1 0 256 256 256 256 0 0 0-256-256z"  horiz-adv-x="1024" />

    
    <glyph glyph-name="zhaopianduibi-tongguo" unicode="&#59216;" d="M512-128C228.693333-128 0 100.693333 0 384S228.693333 896 512 896s512-228.693333 512-512-228.693333-512-512-512z m300.373333 675.84c-13.653333 13.653333-34.133333 13.653333-46.08 0L443.733333 225.28 261.12 407.893333c-11.946667 11.946667-32.426667 11.946667-46.08 0-11.946667-11.946667-11.946667-32.426667 0-46.08L414.72 162.133333c1.706667-3.413333 3.413333-6.826667 5.12-8.533333 13.653333-13.653333 34.133333-13.653333 46.08 0l344.746667 344.746667c13.653333 15.36 13.653333 35.84 1.706666 49.493333z"  horiz-adv-x="1024" />

    
    <glyph glyph-name="zhaopianduibi-weitongguo" unicode="&#59217;" d="M512 896C230.4 896 0 669.013333 0 384c0-281.6 230.4-512 512-512s512 230.4 512 512-230.4 512-512 512z m262.826667-776.533333c-5.12-3.413333-15.36-8.533333-25.6-8.533334s-17.066667 5.12-23.893334 10.24L510.293333 334.506667 300.373333 122.88c-8.533333-8.533333-15.36-13.653333-25.6-13.653333-18.773333 0-34.133333 15.36-34.133333 34.133333 0 10.24 5.12 17.066667 10.24 23.893333l211.626667 213.333334L249.173333 595.626667c-15.36 15.36-15.36 37.546667 0 49.493333 15.36 15.36 37.546667 15.36 49.493334 0l211.626666-213.333333L723.626667 646.826667c15.36 15.36 37.546667 15.36 49.493333 0 15.36-15.36 15.36-37.546667 0-49.493334L559.786667 384l215.04-215.04c13.653333-15.36 13.653333-39.253333 0-49.493333z"  horiz-adv-x="1024" />

    
    <glyph glyph-name="chuyurenyuanxinxixiangxi" unicode="&#59218;" d="M910.222222 782.222222H711.111111v56.888889c0 34.133333-28.444444 56.888889-56.888889 56.888889-34.133333 0-56.888889-22.755556-56.888889-56.888889v-56.888889h-170.666666v56.888889c0 34.133333-22.755556 56.888889-56.888889 56.888889s-56.888889-22.755556-56.888889-56.888889v-56.888889H113.777778c-34.133333 0-56.888889-22.755556-56.888889-56.888889v-796.444444c0-34.133333 22.755556-56.888889 56.888889-56.888889H910.222222c34.133333 0 56.888889 22.755556 56.888889 56.888889V725.333333c0 34.133333-22.755556 56.888889-56.888889 56.888889zM853.333333-14.222222H170.666667V668.444444h142.222222v-56.888888c0-34.133333 22.755556-56.888889 56.888889-56.888889s56.888889 22.755556 56.888889 56.888889v56.888888h170.666666v-56.888888c0-34.133333 22.755556-56.888889 56.888889-56.888889s56.888889 22.755556 56.888889 56.888889v56.888888H853.333333v-682.666666zM682.666667 270.222222h-341.333334c-34.133333 0-56.888889-22.755556-56.888889-56.888889s22.755556-56.888889 56.888889-56.888889h341.333334c34.133333 0 56.888889 22.755556 56.888889 56.888889s-22.755556 56.888889-56.888889 56.888889zM682.666667 475.022222h-341.333334c-34.133333 0-56.888889-22.755556-56.888889-56.888889s22.755556-56.888889 56.888889-56.888889h341.333334c34.133333 0 56.888889 22.755556 56.888889 56.888889s-22.755556 56.888889-56.888889 56.888889z"  horiz-adv-x="1024" />

    
    <glyph glyph-name="shouqi2" unicode="&#59220;" d="M512 76.8L0 691.2h1024L512 76.8z"  horiz-adv-x="1024" />

    
    <glyph glyph-name="rili" unicode="&#59219;" d="M950.857143-128H73.142857a73.142857 73.142857 0 0 0-73.142857 73.142857V676.571429a73.142857 73.142857 0 0 0 73.142857 73.142857h146.285714V822.857143a73.142857 73.142857 0 0 0 146.285715 0v-73.142857h292.571428V822.857143a73.142857 73.142857 0 0 0 146.285715 0v-73.142857h146.285714a73.142857 73.142857 0 0 0 73.142857-73.142857v-731.428572a73.142857 73.142857 0 0 0-73.142857-73.142857zM877.714286 603.428571h-73.142857a73.142857 73.142857 0 0 0-146.285715 0H365.714286a73.142857 73.142857 0 0 0-146.285715 0H146.285714v-146.285714h731.428572V603.428571zM146.285714 310.857143v-292.571429h731.428572V310.857143H146.285714z"  horiz-adv-x="1024" />

    
    <glyph glyph-name="daohang-yonghu" unicode="&#59222;" d="M512 896C230.4 896 0 665.6 0 384s230.4-512 512-512 512 230.4 512 512S793.6 896 512 896z m0-938.666667C277.333333-42.666667 85.333333 149.333333 85.333333 384S277.333333 810.666667 512 810.666667s426.666667-192 426.666667-426.666667-192-426.666667-426.666667-426.666667zM772.266667 153.6c-21.333333 81.066667-76.8 145.066667-149.333334 174.933333 55.466667 34.133333 89.6 98.133333 89.6 166.4 0 106.666667-89.6 196.266667-196.266666 196.266667S320 601.6 320 494.933333c0-68.266667 34.133333-132.266667 89.6-166.4-72.533333-29.866667-128-93.866667-149.333333-174.933333-4.266667-17.066667 8.533333-38.4 25.6-42.666667h8.533333c17.066667 0 29.866667 8.533333 34.133333 25.6 21.333333 85.333333 98.133333 145.066667 187.733334 145.066667 89.6 0 166.4-59.733333 187.733333-145.066667 4.266667-17.066667 25.6-29.866667 42.666667-25.6 21.333333 4.266667 34.133333 21.333333 25.6 42.666667z m-251.733334 213.333333c-68.266667 0-128 55.466667-128 128 0 68.266667 55.466667 128 128 128s128-55.466667 128-128c-4.266667-72.533333-59.733333-128-128-128z"  horiz-adv-x="1024" />

    
    <glyph glyph-name="shangchuanzhaopian" unicode="&#59223;" d="M870.4 179.2v-204.8h-102.4v204.8h-153.6v51.2h51.2v51.2h51.2v51.2h51.2v51.2h102.4v-51.2h51.2v-51.2h51.2v-51.2h51.2v-51.2h-153.6z m-51.2 332.8A76.8 76.8 0 1 0 742.4 588.8 76.8 76.8 0 0 0 819.2 512zM921.6 691.2H102.4v-339.712l226.816 131.072 63.488 63.0784 217.088-166.0416-72.704-72.3968-130.56 100.096L102.4 213.6064V76.8h460.8v-102.4H51.2a51.2 51.2 0 0 0-51.2 51.2V742.4a51.2 51.2 0 0 0 51.2 51.2h921.6a51.2 51.2 0 0 0 51.2-51.2v-256h-102.4V691.2z"  horiz-adv-x="1024" />

    
    <glyph glyph-name="tongguo" unicode="&#59226;" d="M512-76.8a460.8 460.8 0 1 0 460.8 460.8 460.8 460.8 0 0 0-460.8-460.8z m0 819.2a358.4 358.4 0 1 1 358.4-358.4 358.4 358.4 0 0 1-358.4 358.4z m0-488.2432L439.808 181.76l-72.704 72.3968-108.544 108.6464L330.752 435.2l109.056-108.5952 253.44 253.3888 72.192-72.3968z"  horiz-adv-x="1024" />

    
    <glyph glyph-name="weitongguo" unicode="&#59227;" d="M512-76.8a460.8 460.8 0 1 0 460.8 460.8 460.8 460.8 0 0 0-460.8-460.8z m0 819.2a358.4 358.4 0 1 1 358.4-358.4 358.4 358.4 0 0 1-358.4 358.4z m144.896-579.2768L512 307.968l-144.896-144.8448-72.192 72.448 144.896 144.7936-144.896 144.7936 72.192 72.448L512 452.7616l144.896 144.8448 72.192-72.448-144.896-144.7936 144.896-144.7936z"  horiz-adv-x="1024" />

    
    <glyph glyph-name="weichusuo" unicode="&#59238;" d="M512 896C230.4 896 0 665.6 0 384s230.4-512 512-512 512 230.4 512 512S793.6 896 512 896z m0-998.4C243.2-102.4 25.6 115.2 25.6 384S243.2 870.4 512 870.4s486.4-217.6 486.4-486.4-217.6-486.4-486.4-486.4zM512 665.6C355.84 665.6 230.4 540.16 230.4 384s125.44-281.6 281.6-281.6 281.6 125.44 281.6 281.6S668.16 665.6 512 665.6z m-30.72-107.52c7.68 10.24 17.92 15.36 30.72 15.36s23.04-5.12 30.72-15.36c7.68-10.24 10.24-23.04 10.24-40.96 0-15.36-2.56-35.84-10.24-66.56 0-2.56 0-5.12-2.56-5.12-5.12-25.6-10.24-48.64-15.36-69.12-2.56-20.48-5.12-38.4-5.12-53.76h-17.92c0 15.36-2.56 35.84-5.12 56.32-2.56 20.48-7.68 43.52-15.36 69.12 0 2.56 0 2.56-2.56 5.12-7.68 28.16-10.24 51.2-10.24 66.56 2.56 12.8 5.12 28.16 12.8 38.4z m61.44-350.72c-7.68-7.68-17.92-12.8-30.72-12.8s-23.04 5.12-30.72 12.8c-7.68 7.68-12.8 17.92-12.8 30.72s5.12 23.04 12.8 30.72c7.68 7.68 17.92 12.8 30.72 12.8s23.04-5.12 30.72-12.8c7.68-7.68 12.8-17.92 12.8-30.72 0-10.24-5.12-20.48-12.8-30.72z"  horiz-adv-x="1024" />

    
    <glyph glyph-name="daichusuo1" unicode="&#59239;" d="M675.84 599.04h-5.12v-69.12c0-12.8-10.24-23.04-23.04-23.04H376.32c-12.8 0-23.04 10.24-23.04 23.04v69.12h-5.12c-38.4 0-71.68-30.72-71.68-71.68v-353.28c0-38.4 30.72-71.68 71.68-71.68h327.68c38.4 0 71.68 30.72 71.68 71.68V527.36c0 38.4-33.28 71.68-71.68 71.68zM632.32 384l-112.64-112.64c-5.12-5.12-10.24-7.68-17.92-7.68s-12.8 2.56-17.92 7.68L422.4 332.8c-7.68 7.68-7.68 17.92 0 25.6s17.92 7.68 25.6 0l53.76-53.76 107.52 107.52c7.68 7.68 17.92 7.68 25.6 0s5.12-23.04-2.56-28.16zM409.6 542.72h204.8c7.68 0 15.36 7.68 15.36 15.36v46.08c0 7.68-7.68 15.36-15.36 15.36h-38.4V650.24c0 7.68-7.68 15.36-15.36 15.36h-102.4c-7.68 0-15.36-7.68-15.36-15.36v-28.16H409.6c-7.68 0-15.36-7.68-15.36-15.36v-46.08c0-10.24 7.68-17.92 15.36-17.92zM512 896C230.4 896 0 665.6 0 384s230.4-512 512-512 512 230.4 512 512S793.6 896 512 896z m0-998.4C243.2-102.4 25.6 115.2 25.6 384S243.2 870.4 512 870.4s486.4-217.6 486.4-486.4-217.6-486.4-486.4-486.4z"  horiz-adv-x="1024" />

    
    <glyph glyph-name="duibiweichenggong" unicode="&#59240;" d="M512 896C230.4 896 0 665.6 0 384s230.4-512 512-512 512 230.4 512 512S793.6 896 512 896z m0-998.4C243.2-102.39999999999998 25.6 115.20000000000005 25.6 384S243.2 870.4 512 870.4s486.4-217.6 486.4-486.4-217.6-486.4-486.4-486.4zM663.04 381.44000000000005c-76.8 0-140.8-64-140.8-140.8s64-140.8 140.8-140.8 140.8 64 140.8 140.8-64 140.8-140.8 140.8z m71.68-194.56l-17.92-17.92-53.76 53.76-53.76-53.76-20.48 17.92 53.76 53.76-53.76 56.32 17.92 17.92 53.76-53.76 53.76 53.76 17.92-17.92-53.76-53.76 56.32-56.32z m-71.68 220.16c12.8 0 25.6-2.56 38.4-5.12v184.32c0 28.16-23.04 51.2-51.2 51.2h-358.4c-28.16 0-51.2-23.04-51.2-51.2v-409.6c0-28.16 23.04-51.2 51.2-51.2h250.88c-28.16 30.72-46.08 71.68-46.08 115.2 0 92.16 74.24 166.4 166.4 166.4z m-371.2 128h358.4v-51.2h-358.4v51.2z m153.6-281.6h-153.6v51.2h153.6v-51.2z m0 102.4h-153.6v51.2h153.6v-51.2z"  horiz-adv-x="1024" />

    
    <glyph glyph-name="quanping" unicode="&#59242;" d="M964.75648-128H724.11648a59.538286 59.538286 0 0 0 0 119.149714h95.817143l-194.56 194.56 84.845714 84.626286 194.56-194.56V171.885714a59.904 59.904 0 0 0 59.977143 59.538286 59.245714 59.245714 0 0 0 59.245714-59.538286v-239.981714a59.245714 59.245714 0 0 0-59.245714-59.904z m2.194286 682.642286a56.978286 56.978286 0 0 0-57.051429 56.905143V701.732571L725.579337 517.266286l-80.457143 80.457143 184.32 184.466285h-89.965714a56.905143 56.905143 0 1 0 0 113.737143h227.474286a56.978286 56.978286 0 0 0 57.051428-56.905143V611.474286a56.978286 56.978286 0 0 0-57.051428-56.832z m-667.062857-563.2a59.538286 59.538286 0 0 0 0-119.149715H59.247909a59.245714 59.245714 0 0 0-59.245715 59.538286V171.885714a59.245714 59.245714 0 0 0 59.245715 59.538286 59.904 59.904 0 0 0 59.977142-59.538286v-95.817143l194.56 194.56 84.114286-84.626285-193.828571-194.56H299.887909z m13.897142 506.660571L119.225051 692.662857V596.114286a59.904 59.904 0 0 0-59.977142-59.538286A59.245714 59.245714 0 0 0 0.002194 596.114286V836.461714A59.245714 59.245714 0 0 0 59.247909 896H299.887909a59.538286 59.538286 0 0 0 0-119.149714H204.070766l193.828571-194.56z"  horiz-adv-x="1024" />

    


  </font>
</defs>
</svg>
